<svg width="21" height="16" viewBox="0 0 21 16" fill="none" xmlns="http://www.w3.org/2000/svg">
<g clip-path="url(#clip0_2474_3179)">
<g clip-path="url(#clip1_2474_3179)">
<path d="M5.76482 12.5574C4.89998 12.5574 4.19873 13.2586 4.19873 14.1235C4.19873 14.9883 4.89998 15.6896 5.76482 15.6896C6.62967 15.6896 7.33092 14.9883 7.33092 14.1235C7.33092 13.2586 6.62967 12.5574 5.76482 12.5574ZM5.76482 14.9935C5.28436 14.9935 4.89482 14.6039 4.89482 14.1235C4.89482 13.643 5.28436 13.2535 5.76482 13.2535C6.24529 13.2535 6.63482 13.643 6.63482 14.1235C6.63482 14.6039 6.24529 14.9935 5.76482 14.9935Z" fill="#DEA465"/>
<path d="M12.3766 12.5574C11.5118 12.5574 10.8105 13.2586 10.8105 14.1235C10.8105 14.9883 11.5118 15.6896 12.3766 15.6896C13.2415 15.6896 13.9427 14.9883 13.9427 14.1235C13.9427 13.2586 13.2415 12.5574 12.3766 12.5574ZM12.3766 14.9935C11.8962 14.9935 11.5066 14.6039 11.5066 14.1235C11.5066 13.643 11.8962 13.2535 12.3766 13.2535C12.8571 13.2535 13.2466 13.643 13.2466 14.1235C13.2466 14.6039 12.8571 14.9935 12.3766 14.9935Z" fill="#DEA465"/>
<path d="M15.9092 3.42238C15.8366 3.34316 15.7377 3.29348 15.6308 3.28316L4.30344 3.1266L3.99031 2.16941C3.76953 1.52957 3.17047 1.09785 2.49406 1.09082H1.32828C1.13609 1.09082 0.980469 1.24645 0.980469 1.43863C0.980469 1.63082 1.13609 1.78645 1.32828 1.78645H2.49406C2.87234 1.79488 3.20563 2.0377 3.32938 2.39535L5.53906 9.05957L5.36516 9.45988C5.17109 9.96051 5.22922 10.5235 5.52172 10.9735C5.81141 11.4155 6.29844 11.6883 6.82672 11.7043H13.5955C13.7877 11.7043 13.9433 11.5486 13.9433 11.3564C13.9433 11.1643 13.7877 11.0086 13.5955 11.0086H6.82672C6.52859 11.0011 6.25391 10.8441 6.09594 10.591C5.93984 10.3407 5.9075 10.0327 6.00875 9.75566L6.14797 9.44254L13.4731 8.67707C14.278 8.58848 14.9398 8.00301 15.1259 7.21551L15.9613 3.71816C15.9987 3.61738 15.9791 3.50395 15.9092 3.42238ZM14.4477 7.05895C14.3347 7.56613 13.9044 7.9402 13.3864 7.98098L6.14797 8.7291L4.52984 3.82223L15.1958 3.97879L14.4477 7.05895Z" fill="#DEA465"/>
</g>
</g>
<defs>
<clipPath id="clip0_2474_3179">
<rect width="15" height="15" fill="white" transform="translate(0.97998 0.890137)"/>
</clipPath>
<clipPath id="clip1_2474_3179">
<rect width="15" height="15" fill="white" transform="translate(0.97998 0.890137)"/>
</clipPath>
</defs>
</svg>
