<svg width="30" height="30" viewBox="0 0 30 30" fill="none" xmlns="http://www.w3.org/2000/svg">
<g clip-path="url(#clip0_2315_49)">
<path d="M29.7363 10.3125C29.4824 10 29.1308 9.84375 28.6816 9.84375H28.0664L18.2812 0.673828C18.1445 0.537109 17.9883 0.46875 17.8125 0.46875C17.6367 0.46875 17.4805 0.537109 17.3437 0.673828C17.207 0.810547 17.1387 0.961914 17.1387 1.12793C17.1387 1.29395 17.207 1.44531 17.3437 1.58203L26.0742 9.78516H3.95506L12.6855 1.58203C12.8223 1.44531 12.8906 1.29395 12.8906 1.12793C12.8906 0.961914 12.8223 0.810547 12.6855 0.673828C12.5488 0.537109 12.3926 0.46875 12.2168 0.46875C12.041 0.46875 11.8848 0.537109 11.748 0.673828L1.96288 9.78516H1.34764C1.15233 9.78516 0.9619 9.8291 0.776353 9.91699C0.590806 10.0049 0.429673 10.1172 0.292954 10.2539C0.0390481 10.6055 -0.0488425 10.9863 0.0292825 11.3965L3.6328 27.9199C3.73045 28.3887 3.95506 28.7695 4.30663 29.0625C4.65819 29.3555 5.07811 29.502 5.56639 29.502H24.4043C24.8926 29.502 25.3125 29.3555 25.664 29.0625C26.0156 28.7695 26.2402 28.3887 26.3379 27.9199L29.9414 11.3965C30 11.1816 30.0098 10.9814 29.9707 10.7959C29.9316 10.6104 29.8535 10.4492 29.7363 10.3125ZM25.0781 27.6562C25 27.9883 24.7754 28.1641 24.4043 28.1836H5.62499C5.27342 28.1641 5.04881 27.9883 4.95116 27.6562L1.34764 11.1328H28.6816L25.0781 27.6562ZM15.0293 15.8496C14.8144 15.8496 14.6484 15.9131 14.5312 16.04C14.414 16.167 14.3555 16.3281 14.3555 16.5234V21.9727C14.3555 22.1875 14.414 22.3535 14.5312 22.4707C14.6484 22.5879 14.8096 22.6465 15.0146 22.6465C15.2197 22.6465 15.3808 22.5879 15.498 22.4707C15.6152 22.3535 15.6738 22.1875 15.6738 21.9727V16.5234C15.6738 16.3281 15.6152 16.167 15.498 16.04C15.3808 15.9131 15.2246 15.8496 15.0293 15.8496ZM9.02342 15.8496C8.82811 15.8496 8.66698 15.9131 8.54002 16.04C8.41307 16.167 8.34959 16.3281 8.34959 16.5234V21.9727C8.34959 22.1875 8.41307 22.3535 8.54002 22.4707C8.66698 22.5879 8.82811 22.6465 9.02342 22.6465C9.21873 22.6465 9.37987 22.5879 9.50682 22.4707C9.63377 22.3535 9.69725 22.1875 9.69725 21.9727V16.5234C9.69725 16.3281 9.63377 16.167 9.50682 16.04C9.37987 15.9131 9.21873 15.8496 9.02342 15.8496ZM21.0058 15.8496C20.8105 15.8496 20.6543 15.9131 20.5371 16.04C20.4199 16.167 20.3613 16.3281 20.3613 16.5234V21.9727C20.3613 22.1875 20.4199 22.3535 20.5371 22.4707C20.6543 22.5879 20.8154 22.6465 21.0205 22.6465C21.2256 22.6465 21.3867 22.5879 21.5039 22.4707C21.6211 22.3535 21.6797 22.1875 21.6797 21.9727V16.5234C21.6797 16.3281 21.6211 16.167 21.5039 16.04C21.3867 15.9131 21.2207 15.8496 21.0058 15.8496Z" fill="#555555"/>
</g>
<defs>
<clipPath id="clip0_2315_49">
<rect width="30" height="30" fill="white" transform="matrix(1 0 0 -1 0 30)"/>
</clipPath>
</defs>
</svg>
