<svg width="18" height="17" viewBox="0 0 18 17" fill="none" xmlns="http://www.w3.org/2000/svg">
<g clip-path="url(#clip0_2315_176)">
<path d="M11.9371 9.17531C11.9371 9.09198 11.9103 9.02352 11.8568 8.96995C11.8032 8.91638 11.7347 8.8896 11.6514 8.8896H9.6514V5.74674C9.6514 5.66936 9.62313 5.60239 9.56658 5.54585C9.51003 5.4893 9.44307 5.46102 9.36569 5.46102H7.6514C7.57402 5.46102 7.50706 5.4893 7.45051 5.54585C7.39396 5.60239 7.36569 5.66936 7.36569 5.74674V8.8896H5.36569C5.28831 8.8896 5.22134 8.91787 5.16479 8.97442C5.10825 9.03096 5.07997 9.09793 5.07997 9.17531C5.07997 9.25864 5.10676 9.3271 5.16033 9.38067L8.30319 12.5235C8.35676 12.5771 8.42521 12.6039 8.50854 12.6039C8.59188 12.6039 8.66033 12.5771 8.7139 12.5235L11.8478 9.3896C11.9074 9.31817 11.9371 9.24674 11.9371 9.17531ZM17.6514 11.1753C17.6514 12.1217 17.3166 12.9298 16.6469 13.5994C15.9773 14.2691 15.1693 14.6039 14.2228 14.6039H4.50854C3.40735 14.6039 2.46539 14.2125 1.68265 13.4298C0.899914 12.647 0.508545 11.7051 0.508545 10.6039C0.508545 9.83007 0.716878 9.11579 1.13354 8.46102C1.55021 7.80626 2.10974 7.31519 2.81212 6.98781C2.80021 6.80924 2.79426 6.68126 2.79426 6.60388C2.79426 5.34198 3.24069 4.2646 4.13355 3.37174C5.0264 2.47888 6.10378 2.03245 7.36569 2.03245C8.29426 2.03245 9.14396 2.29138 9.91479 2.80924C10.6856 3.3271 11.2466 4.0146 11.5978 4.87174C12.0205 4.50269 12.5145 4.31817 13.08 4.31817C13.7109 4.31817 14.2496 4.54138 14.696 4.98781C15.1425 5.43424 15.3657 5.97293 15.3657 6.60388C15.3657 7.05626 15.2437 7.46698 14.9996 7.83602C15.7734 8.02055 16.4088 8.42382 16.9059 9.04585C17.4029 9.66787 17.6514 10.3777 17.6514 11.1753Z" fill="#DEA465"/>
</g>
<defs>
<clipPath id="clip0_2315_176">
<rect width="17.16" height="16" fill="white" transform="matrix(1 0 0 -1 0.5 16.8896)"/>
</clipPath>
</defs>
</svg>
