<svg width="13" height="24" viewBox="0 0 13 24" fill="none" xmlns="http://www.w3.org/2000/svg">
<path d="M12 13.5H8.48438V24H3.79688V13.5H0V9.14062H3.79688V5.85938C3.79688 4.60938 4.03125 3.54688 4.5 2.67188C4.96875 1.79688 5.625 1.14062 6.46875 0.703125C7.34375 0.234375 8.34375 0 9.46875 0C9.96875 0 10.5 0.03125 11.0625 0.09375C11.625 0.125 12.0625 0.171875 12.375 0.234375L12.8438 0.28125V3.98438H10.9688C10.0938 3.98438 9.45312 4.21875 9.04688 4.6875C8.67188 5.125 8.48438 5.67188 8.48438 6.32813V9.14062H12.6563L12 13.5Z" fill="#DEA465"/>
</svg>
