<svg width="25" height="24" viewBox="0 0 25 24" fill="none" xmlns="http://www.w3.org/2000/svg">
<path d="M8.45089 7.66071C9.66518 6.44643 11.1295 5.83929 12.8438 5.83929C14.558 5.83929 16.0045 6.44643 17.183 7.66071C18.3973 8.83929 19.0045 10.2857 19.0045 12C19.0045 13.7143 18.3973 15.1786 17.183 16.3929C16.0045 17.5714 14.558 18.1607 12.8438 18.1607C11.1295 18.1607 9.66518 17.5714 8.45089 16.3929C7.27232 15.1786 6.68304 13.7143 6.68304 12C6.68304 10.2857 7.27232 8.83929 8.45089 7.66071ZM10.0045 14.8393C10.7902 15.625 11.7366 16.0179 12.8438 16.0179C13.9509 16.0179 14.8973 15.625 15.683 14.8393C16.4688 14.0536 16.8616 13.1071 16.8616 12C16.8616 10.8929 16.4688 9.94643 15.683 9.16071C14.8973 8.375 13.9509 7.98214 12.8438 7.98214C11.7366 7.98214 10.7902 8.375 10.0045 9.16071C9.21875 9.94643 8.82589 10.8929 8.82589 12C8.82589 13.1071 9.21875 14.0536 10.0045 14.8393ZM20.2366 4.60714C20.5223 4.85714 20.6652 5.17857 20.6652 5.57143C20.6652 5.96429 20.5223 6.30357 20.2366 6.58929C19.9866 6.875 19.6652 7.01786 19.2723 7.01786C18.8795 7.01786 18.5402 6.875 18.2545 6.58929C17.9688 6.30357 17.8259 5.96429 17.8259 5.57143C17.8259 5.17857 17.9688 4.85714 18.2545 4.60714C18.5402 4.32143 18.8795 4.17857 19.2723 4.17857C19.6652 4.17857 19.9866 4.32143 20.2366 4.60714ZM24.7902 7.07143C24.8259 8.03571 24.8438 9.67857 24.8438 12C24.8438 14.3214 24.8259 15.9643 24.7902 16.9286C24.683 19.1071 24.0223 20.8036 22.808 22.0179C21.6295 23.1964 19.9509 23.8214 17.7723 23.8929C16.808 23.9643 15.1652 24 12.8438 24C10.5223 24 8.87946 23.9643 7.91518 23.8929C5.73661 23.7857 4.05804 23.1429 2.87946 21.9643C2.41518 21.5357 2.04018 21.0357 1.75446 20.4643C1.46875 19.8929 1.25446 19.3393 1.11161 18.8036C1.00446 18.2679 0.950893 17.6429 0.950893 16.9286C0.879464 15.9643 0.84375 14.3214 0.84375 12C0.84375 9.67857 0.879464 8.01786 0.950893 7.01786C1.05804 4.875 1.70089 3.21429 2.87946 2.03571C4.05804 0.821429 5.73661 0.160714 7.91518 0.0535714C8.87946 0.0178571 10.5223 0 12.8438 0C15.1652 0 16.808 0.0178571 17.7723 0.0535714C19.9509 0.160714 21.6295 0.821429 22.808 2.03571C24.0223 3.21429 24.683 4.89286 24.7902 7.07143ZM22.2188 19.0714C22.3259 18.7857 22.4152 18.4286 22.4866 18C22.558 17.5357 22.6116 17 22.6473 16.3929C22.683 15.75 22.7009 15.2321 22.7009 14.8393C22.7009 14.4464 22.7009 13.8929 22.7009 13.1786C22.7009 12.4643 22.7009 12.0714 22.7009 12C22.7009 11.8929 22.7009 11.5 22.7009 10.8214C22.7009 10.1071 22.7009 9.55357 22.7009 9.16071C22.7009 8.76786 22.683 8.26786 22.6473 7.66071C22.6116 7.01786 22.558 6.48214 22.4866 6.05357C22.4152 5.58929 22.3259 5.21429 22.2188 4.92857C21.7902 3.82143 21.0223 3.05357 19.9152 2.625C19.6295 2.51786 19.2545 2.42857 18.7902 2.35714C18.3616 2.28571 17.8259 2.23214 17.183 2.19643C16.5759 2.16071 16.0759 2.14286 15.683 2.14286C15.3259 2.14286 14.7723 2.14286 14.0223 2.14286C13.308 2.14286 12.9152 2.14286 12.8438 2.14286C12.7723 2.14286 12.3795 2.14286 11.6652 2.14286C10.9509 2.14286 10.3973 2.14286 10.0045 2.14286C9.61161 2.14286 9.09375 2.16071 8.45089 2.19643C7.84375 2.23214 7.30804 2.28571 6.84375 2.35714C6.41518 2.42857 6.05804 2.51786 5.77232 2.625C4.66518 3.05357 3.89732 3.82143 3.46875 4.92857C3.36161 5.21429 3.27232 5.58929 3.20089 6.05357C3.12946 6.48214 3.07589 7.01786 3.04018 7.66071C3.00446 8.26786 2.98661 8.76786 2.98661 9.16071C2.98661 9.51786 2.98661 10.0714 2.98661 10.8214C2.98661 11.5357 2.98661 11.9286 2.98661 12C2.98661 12.1429 2.98661 12.4821 2.98661 13.0179C2.98661 13.5179 2.98661 13.9464 2.98661 14.3036C2.98661 14.625 2.98661 15.0536 2.98661 15.5893C3.02232 16.125 3.05804 16.5893 3.09375 16.9821C3.12946 17.3393 3.18304 17.7143 3.25446 18.1071C3.32589 18.5 3.39732 18.8214 3.46875 19.0714C3.93304 20.1786 4.70089 20.9464 5.77232 21.375C6.05804 21.4821 6.41518 21.5714 6.84375 21.6429C7.30804 21.7143 7.84375 21.7679 8.45089 21.8036C9.09375 21.8393 9.59375 21.8571 9.95089 21.8571C10.3438 21.8571 10.8973 21.8571 11.6116 21.8571C12.3616 21.8571 12.7723 21.8571 12.8438 21.8571C12.9509 21.8571 13.3438 21.8571 14.0223 21.8571C14.7366 21.8571 15.2902 21.8571 15.683 21.8571C16.0759 21.8571 16.5759 21.8393 17.183 21.8036C17.8259 21.7679 18.3616 21.7143 18.7902 21.6429C19.2545 21.5714 19.6295 21.4821 19.9152 21.375C21.0223 20.9107 21.7902 20.1429 22.2188 19.0714Z" fill="#DEA465"/>
</svg>
