<svg width="11" height="11" viewBox="0 0 11 11" fill="none" xmlns="http://www.w3.org/2000/svg">
<path d="M5.50003 9.16667H9.62503M6.87503 2.29167L8.25003 3.66667M7.5057 1.66008C7.68815 1.47763 7.93562 1.37512 8.19366 1.37512C8.45169 1.37512 8.69916 1.47763 8.88161 1.66008C9.06407 1.84254 9.16658 2.09001 9.16658 2.34804C9.16658 2.60608 9.06407 2.85354 8.88161 3.036L3.37703 8.54104C3.26799 8.65008 3.13321 8.72984 2.98516 8.77296L1.66882 9.15704C1.62938 9.16854 1.58758 9.16923 1.54778 9.15904C1.50798 9.14884 1.47166 9.12814 1.44261 9.09909C1.41356 9.07004 1.39285 9.03371 1.38266 8.99392C1.37246 8.95412 1.37315 8.91231 1.38465 8.87287L1.76874 7.55654C1.81192 7.40865 1.89168 7.27404 2.00065 7.16513L7.5057 1.66008Z" stroke="#686868" stroke-linecap="round" stroke-linejoin="round"/>
</svg>
