<svg width="26" height="27" viewBox="0 0 26 27" fill="none" xmlns="http://www.w3.org/2000/svg">
<path d="M0.837891 5.1582C0.617839 5.1582 0.423177 5.23438 0.253906 5.38672C0.0846354 5.53906 0 5.74219 0 5.99609V20.1387C0 20.3926 0.0846354 20.5957 0.253906 20.748C0.423177 20.9004 0.617839 20.9766 0.837891 20.9766H25.1621C25.3822 20.9766 25.5768 20.9004 25.7461 20.748C25.9154 20.5957 26 20.3926 26 20.1387V5.99609C26 5.74219 25.9154 5.53906 25.7461 5.38672C25.5768 5.23438 25.3822 5.1582 25.1621 5.1582H0.837891ZM2.13281 6.27539C3.02995 6.27539 6.65234 6.27539 13 6.27539H23.8672L12.9746 14.8828L2.13281 6.27539ZM1.14258 6.93555C1.43034 7.17253 2.60677 8.10352 4.67188 9.72852L8.20117 12.5215L1.14258 19.123V6.93555ZM24.9082 6.93555C24.9082 7.44336 24.9082 9.46615 24.9082 13.0039V19.0977L17.8242 12.4961L24.9082 6.93555ZM9.11523 13.2324C9.26758 13.3509 9.86003 13.8249 10.8926 14.6543L12.6699 16.0762C12.7715 16.1608 12.89 16.2031 13.0254 16.2031C13.1608 16.2031 13.2793 16.1608 13.3809 16.0762L16.9355 13.2324L24.0703 19.8594H2.00586L9.11523 13.2324Z" fill="#DEA465"/>
</svg>
