<svg width="26" height="27" viewBox="0 0 26 27" fill="none" xmlns="http://www.w3.org/2000/svg">
<g clip-path="url(#clip0_2315_230)">
<path d="M13 0.0800781C10.1732 0.147787 7.80762 1.12956 5.90332 3.02539C3.99902 4.92122 3.01302 7.28255 2.94531 10.1094C3.31771 13.0885 4.84538 16.2708 7.52832 19.6562C10.2113 23.0417 11.8405 24.9714 12.416 25.4453L13 26.0801L13.6094 25.4453C14.1849 24.9714 15.8141 23.0417 18.4971 19.6562C21.18 16.2708 22.7077 13.0885 23.0801 10.1094C22.9954 7.28255 22.0052 4.92122 20.1094 3.02539C18.2135 1.12956 15.8438 0.147787 13 0.0800781ZM13 23.6426C11.4258 21.9499 9.67806 19.762 7.75684 17.0791C5.83561 14.3962 4.79036 12.0729 4.62109 10.1094C4.6888 7.73958 5.514 5.77181 7.09668 4.20605C8.67936 2.6403 10.6471 1.82357 13 1.75586C15.3698 1.82357 17.346 2.64453 18.9287 4.21875C20.5114 5.79297 21.3366 7.75651 21.4043 10.1094C21.2181 12.0729 20.1686 14.4004 18.2559 17.0918C16.3431 19.7832 14.5911 21.9668 13 23.6426ZM13 4.85352C11.5273 4.9043 10.2959 5.42057 9.30566 6.40234C8.31543 7.38412 7.80339 8.61979 7.76953 10.1094C7.80339 11.582 8.31543 12.8135 9.30566 13.8037C10.2959 14.7939 11.5273 15.306 13 15.3398C14.4896 15.306 15.7295 14.7897 16.7197 13.791C17.71 12.7923 18.222 11.5482 18.2559 10.0586C18.222 8.60287 17.71 7.38412 16.7197 6.40234C15.7295 5.42057 14.4896 4.9043 13 4.85352ZM13 13.8672C11.9336 13.8503 11.0407 13.4821 10.3213 12.7627C9.60189 12.0433 9.22526 11.1419 9.19141 10.0586C9.22526 8.97526 9.60189 8.07389 10.3213 7.35449C11.0407 6.63509 11.9336 6.26693 13 6.25C14.0833 6.26693 14.9847 6.63509 15.7041 7.35449C16.4235 8.07389 16.8001 8.97526 16.834 10.0586C16.8001 11.1419 16.4235 12.0433 15.7041 12.7627C14.9847 13.4821 14.0833 13.8503 13 13.8672ZM13 15.5176C11.4766 15.4668 10.207 14.9336 9.19141 13.918C8.17578 12.9023 7.64258 11.6328 7.5918 10.1094C7.64258 8.56901 8.17578 7.29102 9.19141 6.27539C10.207 5.25977 11.4766 4.73503 13 4.70117C14.5404 4.73503 15.8184 5.25553 16.834 6.2627C17.8496 7.26986 18.3743 8.53516 18.4082 10.0586C18.3743 11.6159 17.8496 12.9066 16.834 13.9307C15.8184 14.9548 14.5404 15.4837 13 15.5176ZM13 5.03125C11.5612 5.0651 10.3678 5.56022 9.41992 6.5166C8.47201 7.47298 7.98112 8.67057 7.94727 10.1094C7.98112 11.5482 8.47201 12.7415 9.41992 13.6895C10.3678 14.6374 11.5612 15.1367 13 15.1875C14.4388 15.1367 15.6364 14.6289 16.5928 13.6641C17.5492 12.6992 18.0443 11.4974 18.0781 10.0586C18.0443 8.63672 17.5492 7.45182 16.5928 6.50391C15.6364 5.55599 14.4388 5.0651 13 5.03125ZM13 13.9941C11.8828 13.9772 10.9561 13.5964 10.2197 12.8516C9.4834 12.1068 9.09831 11.1758 9.06445 10.0586C9.09831 8.94141 9.4834 8.01042 10.2197 7.26562C10.9561 6.52083 11.8828 6.13997 13 6.12305C14.1172 6.13997 15.0482 6.52083 15.793 7.26562C16.5378 8.01042 16.9271 8.94141 16.9609 10.0586C16.9271 11.1758 16.5378 12.1068 15.793 12.8516C15.0482 13.5964 14.1172 13.9772 13 13.9941ZM13 6.40234C11.9674 6.4362 11.1084 6.7959 10.4229 7.48145C9.7373 8.16699 9.38607 9.02604 9.36914 10.0586C9.38607 11.0911 9.7373 11.9502 10.4229 12.6357C11.1084 13.3213 11.9674 13.681 13 13.7148C14.0326 13.681 14.8958 13.3213 15.5898 12.6357C16.2839 11.9502 16.6393 11.0911 16.6562 10.0586C16.6393 9.02604 16.2839 8.16699 15.5898 7.48145C14.8958 6.7959 14.0326 6.4362 13 6.40234Z" fill="#DEA465"/>
</g>
<defs>
<clipPath id="clip0_2315_230">
<rect width="26" height="26" fill="white" transform="matrix(1 0 0 -1 0 26.0801)"/>
</clipPath>
</defs>
</svg>
