<svg width="26" height="27" viewBox="0 0 26 27" fill="none" xmlns="http://www.w3.org/2000/svg">
<path d="M19.3224 15.416L17.3419 13.9179C16.9695 13.6471 16.5717 13.5244 16.1485 13.5498C15.7254 13.5752 15.353 13.7402 15.0313 14.0449L14.295 14.8066C13.7026 14.6543 13.1778 14.3834 12.7208 13.9941L12.67 13.9433C12.4669 13.7741 12.2976 13.5963 12.1622 13.4101L12.1114 13.3594C11.7221 12.8854 11.4513 12.3607 11.2989 11.7851L12.0606 11.0488C12.3653 10.7272 12.5304 10.3548 12.5558 9.93162C12.5811 9.50844 12.4584 9.11066 12.1876 8.73826L10.6895 6.75779C10.4187 6.41925 10.0844 6.20343 9.68661 6.11033C9.28883 6.01723 8.89527 6.04685 8.50595 6.1992L8.27743 6.32615C7.60035 6.63084 7.06291 7.07941 6.66513 7.67185C6.26734 8.2643 6.05152 8.94139 6.01767 9.7031C6.00074 10.9049 6.19117 12.0729 6.58896 13.207C6.98674 14.3411 7.57496 15.3737 8.3536 16.3047L8.45517 16.4316C8.84449 16.8887 9.2592 17.3034 9.69931 17.6758L9.82626 17.8027C10.7234 18.5475 11.7179 19.1188 12.8097 19.5166C13.9015 19.9144 15.0398 20.1217 16.2247 20.1387H16.4024C17.1472 20.1217 17.8201 19.9101 18.421 19.5039C19.0219 19.0976 19.4747 18.556 19.7794 17.8789L19.8809 17.6504C20.0333 17.2441 20.0629 16.8379 19.9698 16.4316C19.8767 16.0254 19.6609 15.6868 19.3224 15.416ZM18.6114 17.0664C18.6114 17.0833 18.603 17.1172 18.586 17.1679L18.5352 17.2949C18.349 17.7181 18.0655 18.0566 17.6847 18.3105C17.3038 18.5644 16.8764 18.6998 16.4024 18.7168C15.3699 18.7337 14.367 18.5729 13.3936 18.2344C12.4203 17.8958 11.5274 17.3965 10.7149 16.7363L10.6134 16.6094C10.224 16.2877 9.86012 15.9323 9.52157 15.5429L9.39462 15.3906C8.73446 14.595 8.23512 13.7106 7.89657 12.7373C7.55803 11.764 7.39722 10.761 7.41415 9.72849C7.43108 9.25454 7.5665 8.82713 7.8204 8.44627C8.07431 8.06541 8.41285 7.78188 8.83603 7.59568L9.06454 7.49412C9.28459 7.40948 9.45387 7.4518 9.57235 7.62107L11.0704 9.60154C11.172 9.77081 11.1635 9.92316 11.045 10.0586L10.0294 11.0996C9.86012 11.2689 9.79241 11.472 9.82626 11.709C9.9786 12.6738 10.3764 13.5371 11.0196 14.2988L11.0704 14.3496C11.2905 14.6035 11.5274 14.8405 11.7813 15.0605L11.8321 15.1113C12.5938 15.7376 13.4571 16.1269 14.422 16.2793C14.6589 16.3131 14.8621 16.2539 15.0313 16.1015L16.0724 15.0605C16.2247 14.959 16.377 14.9505 16.5294 15.0351L18.5099 16.5332C18.6283 16.6855 18.6622 16.8633 18.6114 17.0664ZM3.80868 3.88865C1.74358 6.02146 0.520597 8.49282 0.139738 11.3027C-0.241122 14.1126 0.279386 16.8209 1.70126 19.4277L0.609464 23.1855C0.474048 23.6933 0.524829 24.1631 0.761808 24.5947C0.998787 25.0263 1.36272 25.3183 1.85361 25.4707C2.20907 25.5892 2.55608 25.5892 2.89462 25.4707L6.62704 24.3789C9.89397 26.1054 13.1863 26.5075 16.504 25.5849C19.8217 24.6624 22.4369 22.6269 24.3497 19.4785C26.0593 16.2116 26.4529 12.9192 25.5304 9.60154C24.6078 6.28383 22.5724 3.6686 19.4239 1.75584C16.8002 0.350891 14.0834 -0.161154 11.2735 0.219706C8.46363 0.600565 5.97535 1.82355 3.80868 3.88865ZM21.2013 21.2558C19.2716 23.1347 17.0245 24.235 14.4601 24.5566C11.8956 24.8782 9.43694 24.362 7.08407 23.0078C6.9148 22.9062 6.7286 22.8808 6.52548 22.9316L2.51376 24.0996C2.39527 24.1334 2.28101 24.125 2.17099 24.0742C2.06096 24.0234 1.98902 23.9472 1.95517 23.8457C1.92131 23.7441 1.92131 23.6426 1.95517 23.541L3.12314 19.5293C3.17392 19.3262 3.14853 19.14 3.04696 18.9707C1.43889 16.11 1.01148 13.1816 1.76474 10.1855C2.51799 7.18943 4.28264 4.81964 7.05868 3.07615C9.91936 1.46808 12.8435 1.04067 15.8311 1.79392C18.8188 2.54718 21.1928 4.31183 22.9532 7.08787C24.3074 9.45766 24.8237 11.9248 24.502 14.4892C24.1804 17.0537 23.0802 19.3092 21.2013 21.2558Z" fill="#DEA465"/>
</svg>
