<svg width="51" height="51" viewBox="0 0 51 51" fill="none" xmlns="http://www.w3.org/2000/svg">
<path d="M6.4022 24.7285H9.97363C10.7593 24.7285 11.4022 25.3714 11.4022 26.1571V41.1571C11.4022 41.9428 10.7593 42.5857 9.97363 42.5857H6.4022C5.61649 42.5857 4.97363 41.9428 4.97363 41.1571V26.1571C4.97363 25.3714 5.61649 24.7285 6.4022 24.7285Z" stroke="#DEA465" stroke-width="2.14286" stroke-linecap="round" stroke-linejoin="round"/>
<path d="M11.4023 41.8715H29.4738C30.4023 41.8715 31.2595 41.5858 32.0452 41.1572L45.4023 33.0143C45.9023 32.7286 46.1881 32.2286 46.3309 31.7286C46.4023 31.1572 46.3309 30.6572 45.9738 30.1572C45.4738 29.5143 44.6166 29.2286 43.7595 29.4429L30.5452 33.8715C30.3309 33.9429 29.9738 34.0143 29.6881 34.0143H23.3309C22.0452 34.0143 20.8309 34.3715 19.7595 35.0858L19.2595 35.4429" stroke="#DEA465" stroke-width="2.14286" stroke-linecap="round" stroke-linejoin="round"/>
<path d="M11.4023 26.157H13.4023C14.9023 26.157 16.3309 26.657 17.4738 27.5856C18.6166 28.5141 20.0452 29.0141 21.5452 29.0141H25.2595C26.5452 29.0141 27.6881 29.657 28.3309 30.7284L28.4023 30.7998C29.0452 31.7998 28.8309 33.0856 28.0452 33.9427" stroke="#DEA465" stroke-width="2.14286" stroke-linecap="round" stroke-linejoin="round"/>
<path d="M23.3306 34.0142H28.0449H29.6877" stroke="#DEA465" stroke-width="2.14286" stroke-linecap="round" stroke-linejoin="round"/>
<path d="M14.2593 26.2284V11.157H43.545V29.5856" stroke="#DEA465" stroke-width="2.14286" stroke-linecap="round" stroke-linejoin="round"/>
<path d="M12.9023 6.87134H44.9737C45.4023 6.87134 45.688 7.15705 45.688 7.58562V10.4428C45.688 10.8713 45.3308 11.1571 44.9737 11.1571H12.9023C12.4737 11.1571 12.188 10.8713 12.188 10.4428V7.58562C12.188 7.15705 12.5451 6.87134 12.9023 6.87134Z" stroke="#DEA465" stroke-width="2.14286" stroke-linecap="round" stroke-linejoin="round"/>
<path d="M17.831 15.4429H27.831C28.2596 15.4429 28.5453 15.7286 28.5453 16.1572V23.3C28.5453 23.7286 28.2596 24.0143 27.831 24.0143H17.831C17.4024 24.0143 17.1167 23.7286 17.1167 23.3V16.1572C17.1167 15.7286 17.4024 15.4429 17.831 15.4429Z" stroke="#DEA465" stroke-width="2.14286" stroke-linecap="round" stroke-linejoin="round"/>
<path d="M32.8306 15.4429H40.6877" stroke="#DEA465" stroke-width="2.14286" stroke-linecap="round" stroke-linejoin="round"/>
<path d="M32.8306 18.2998H40.6877" stroke="#DEA465" stroke-width="2.14286" stroke-linecap="round" stroke-linejoin="round"/>
</svg>
