<svg width="51" height="51" viewBox="0 0 51 51" fill="none" xmlns="http://www.w3.org/2000/svg">
<path d="M22.084 3.29248C21.9193 3.29248 21.9193 3.29248 22.084 3.29248C21.9193 3.29248 21.9193 3.29248 21.7547 3.29248L2.65715 11.3596C2.32789 11.3596 2.16325 11.5242 1.99862 11.8535C1.83398 12.0181 1.83398 12.1827 1.83398 12.3474V36.8778C1.83398 36.8778 1.83398 36.8778 1.83398 37.0425C1.83398 37.3717 1.99862 37.5364 2.32789 37.701L21.5901 45.9327C21.7547 45.9327 21.7547 45.9327 21.9193 45.9327C22.084 45.9327 22.084 45.9327 22.084 45.9327L32.4559 41.4876C34.1023 44.1217 36.901 46.0973 40.3584 46.0973C45.2974 46.0973 49.4132 41.9815 49.4132 37.0425C49.4132 32.5973 46.1206 28.8108 41.8401 28.1522V12.6766C41.8401 12.512 41.8401 12.1827 41.6754 12.0181C41.5108 11.8535 41.3462 11.6888 41.1815 11.6888L22.084 3.62175H21.9193C22.2486 3.29248 22.2486 3.29248 22.084 3.29248ZM22.084 4.93882L26.1998 6.58516L9.07788 13.8291L4.96203 12.1827L22.084 4.93882ZM28.1754 7.57297L33.1145 9.71321L15.6632 17.1217C15.334 17.2864 15.1693 17.6156 15.1693 17.9449V26.6705L13.3584 24.0364C13.1937 23.7071 12.6998 23.5425 12.3706 23.7071L10.2303 24.6949V14.9815L28.1754 7.57297ZM35.2547 10.5364L39.3706 12.1827L22.2486 19.5913L18.1328 17.9449L35.2547 10.5364ZM3.64496 13.4998L8.58398 15.64V26.3412C8.58398 26.8352 8.91325 27.1644 9.40715 27.1644C9.57178 27.1644 9.73642 27.1644 9.73642 26.9998L12.3706 25.6827L15.1693 29.9632C15.334 30.2925 15.6632 30.4571 15.9925 30.4571C15.9925 30.4571 15.9925 30.4571 16.1571 30.4571C16.1571 30.4571 16.3218 30.4571 16.3218 30.2925C16.651 30.1278 16.651 29.7986 16.651 29.4693V19.0974L21.0962 20.9083V43.7925L3.48032 36.2193L3.64496 13.4998ZM40.523 13.4998V27.823C36.4071 27.9876 32.7852 30.951 31.962 34.9022L29.9864 35.7254L25.212 37.701C24.7181 37.8656 24.5535 38.3595 24.7181 38.8534C24.8828 39.3473 25.3767 39.512 25.8706 39.3473L30.6449 37.3717L31.7974 36.8778V37.0425C31.7974 38.0303 31.962 39.1827 32.2913 40.0059L23.0718 43.9571V21.073L40.523 13.4998ZM40.6876 29.6339C44.8035 29.6339 48.0962 32.9266 48.0962 37.0425C48.0962 41.1583 44.8035 44.451 40.6876 44.451C36.5718 44.451 33.2791 41.1583 33.2791 37.0425C33.2791 32.9266 36.5718 29.6339 40.6876 29.6339ZM30.151 32.4327C29.9864 32.4327 29.9864 32.4327 29.8218 32.4327L25.0474 34.4083C24.5535 34.573 24.3889 35.0669 24.5535 35.3961C24.7181 35.89 25.212 36.0547 25.5413 35.89C25.5413 35.89 25.5413 35.89 25.7059 35.89L30.4803 33.9144C30.9742 33.7498 31.1388 33.2559 30.9742 32.762C30.8096 32.5973 30.4803 32.4327 30.151 32.4327Z" fill="#DEA465"/>
<path d="M45.4998 34.5C45.3441 34.5 45.1884 34.5 45.0327 34.6557L38.9604 39.3267L36.9363 36.8355C36.6249 36.5241 36.1578 36.5241 35.8464 36.6798C35.535 36.8355 35.535 37.4583 35.6907 37.7697L38.649 41.3509L45.8112 35.9013C46.1226 35.5899 46.2783 35.1228 45.9669 34.8114C45.9669 34.6557 45.6555 34.5 45.4998 34.5Z" fill="#DEA465"/>
</svg>
