<svg width="50" height="51" viewBox="0 0 50 51" fill="none" xmlns="http://www.w3.org/2000/svg">
<path d="M46.7884 26.1413C46.7884 25.948 46.7884 25.948 46.5951 25.7547L43.1158 19.9559C42.5359 18.9895 41.5695 18.4096 40.4097 18.4096H33.4512V17.4431C33.4512 14.5437 31.1317 12.2242 28.2323 12.2242H19.1476C17.6012 7.58522 12.5756 5.07242 7.93663 6.81205C3.29761 8.55168 0.978105 13.5773 2.52444 18.2163C3.4909 20.7291 5.42383 22.8553 8.12992 23.6285V37.5455C8.12992 38.1254 8.7098 38.7053 9.28967 38.7053H12.5756C13.1555 41.4114 15.8616 42.9577 18.5677 42.3778C20.3073 41.9912 21.8537 40.4449 22.2403 38.7053H32.4848H34.2244C34.8043 41.4114 37.5103 42.9577 40.2164 42.3778C42.1494 41.9912 43.5024 40.4449 43.889 38.7053H45.6286C46.2085 38.7053 46.7884 38.1254 46.7884 37.5455V26.1413ZM4.26407 15.1236C4.26407 11.4511 7.16346 8.55168 10.836 8.55168C14.5086 8.55168 17.408 11.4511 17.408 15.1236C17.408 18.7962 14.5086 21.6956 10.836 21.6956C7.16346 21.6956 4.26407 18.7962 4.26407 15.1236ZM19.9208 37.5455C19.9208 39.0919 18.761 40.2516 17.2147 40.2516C15.6683 40.2516 14.5086 39.0919 14.5086 37.5455C14.5086 35.9992 15.6683 34.8394 17.2147 34.8394C18.761 34.8394 19.9208 35.9992 19.9208 37.5455ZM31.1317 19.5693V36.5791H22.047C21.4671 33.873 18.761 32.3266 16.0549 32.9065C14.3153 33.2931 12.7689 34.8394 12.3824 36.5791H10.2561V24.2084C10.4494 24.2084 10.6427 24.2084 10.836 24.2084C15.6683 24.2084 19.7275 20.1492 19.7275 15.3169C19.7275 15.1236 19.7275 14.9303 19.7275 14.737H28.2323C29.7787 14.737 31.1317 16.0901 31.1317 17.6364V19.5693ZM33.4512 20.7291H40.4097C40.7963 20.7291 40.9896 20.9224 41.1829 21.1157L43.6957 25.1748H33.6445L33.4512 20.7291ZM39.0567 40.2516C37.5103 40.2516 36.3506 39.0919 36.3506 37.5455C36.3506 35.9992 37.5103 34.8394 39.0567 34.8394C40.603 34.8394 41.7628 35.9992 41.7628 37.5455C41.5695 39.0919 40.4097 40.2516 39.0567 40.2516ZM44.4689 36.3858H43.889C43.3091 33.6797 40.603 32.1333 37.8969 32.7132C36.1573 33.0998 34.611 34.6461 34.2244 36.3858H33.6445V27.4943H44.6622V36.3858H44.4689Z" fill="#DEA465" stroke="black"/>
<path d="M10.1392 14.8082V11.8589C10.1392 11.2691 10.729 10.6792 11.3189 10.6792C11.3189 10.6792 12.302 10.6792 12.4986 11.8589C12.4986 12.2521 12.4986 13.0386 12.4986 13.0386V14.6116C12.4986 15.2014 11.9087 15.7913 11.3189 15.7913C10.729 15.7913 10.1392 15.398 10.1392 14.8082Z" fill="#DEA465" stroke="black"/>
<path d="M11 15.3999H16.3H11Z" fill="#DEA465"/>
<path d="M11 15.3999H16.3" stroke="#DEA465" stroke-width="2"/>
</svg>
