<svg width="50" height="51" viewBox="0 0 50 51" fill="none" xmlns="http://www.w3.org/2000/svg">
<path d="M40.7199 6.97998H9.2799C7.6799 6.97998 6.3999 8.25998 6.3999 9.85998V34.22C6.3999 35.82 7.6799 37.1 9.2799 37.1H19.8399C20.3999 37.1 20.8399 36.66 20.8399 36.1C20.8399 35.54 20.3999 35.1 19.8399 35.1H9.2799C8.7999 35.1 8.3999 34.7 8.3999 34.22V15.98H41.5599V34.18C41.5599 34.66 41.1599 35.06 40.6799 35.06H30.2399C29.6799 35.06 29.2399 35.5 29.2399 36.06C29.2399 36.62 29.6799 37.06 30.2399 37.06H40.6799C42.2799 37.06 43.5599 35.78 43.5599 34.18V9.81998C43.5599 8.25998 42.2799 6.97998 40.7199 6.97998ZM8.4399 13.98V9.81998C8.4399 9.33998 8.8399 8.93998 9.3199 8.93998H40.7199C41.1999 8.93998 41.5999 9.33998 41.5999 9.81998V13.98H8.4399ZM16.1999 11.5C16.1999 12.18 15.6399 12.7 14.9999 12.7C14.3599 12.7 13.7999 12.14 13.7999 11.5C13.7999 10.82 14.3599 10.3 14.9999 10.3C15.6399 10.3 16.1999 10.82 16.1999 11.5ZM20.1999 11.5C20.1999 12.18 19.6399 12.7 18.9999 12.7C18.3199 12.7 17.7999 12.14 17.7999 11.5C17.7999 10.82 18.3599 10.3 18.9999 10.3C19.6399 10.26 20.1999 10.82 20.1999 11.5ZM12.1999 11.5C12.1999 12.18 11.6399 12.7 10.9999 12.7C10.3599 12.7 9.7999 12.14 9.7999 11.5C9.7999 10.82 10.3599 10.3 10.9999 10.3C11.6399 10.3 12.1999 10.82 12.1999 11.5ZM33.7999 23.02H16.1999C15.6399 23.02 15.1999 22.58 15.1999 22.02C15.1999 21.46 15.6399 21.02 16.1999 21.02H33.7999C34.3599 21.02 34.7999 21.46 34.7999 22.02C34.7999 22.58 34.3599 23.02 33.7999 23.02Z" fill="#DEA465"/>
<path d="M20.1599 30.9001C19.7599 30.5001 19.7599 29.8601 20.1599 29.5001L24.2399 25.4201C24.6399 25.0201 25.2799 25.0201 25.6399 25.4201L29.7599 29.5001C30.1599 29.9001 30.1599 30.5401 29.7599 30.9001C29.5599 31.1001 29.3199 31.1801 29.0399 31.1801C28.7599 31.1801 28.5199 31.1001 28.3199 30.9001L25.9599 28.5401V45.0201C25.9599 45.5801 25.5199 46.0201 24.9599 46.0201C24.3999 46.0201 23.9599 45.5801 23.9599 45.0201V28.5401L21.5999 30.9001C21.1999 31.3001 20.5599 31.3001 20.1599 30.9001Z" fill="#DEA465"/>
</svg>
