<svg width="28" height="22" viewBox="0 0 28 22" fill="none" xmlns="http://www.w3.org/2000/svg">
<path d="M27.0078 2.03585L23.0281 20.6469C22.716 21.9735 21.9942 22.3246 20.8627 21.7004L14.8346 17.2524L11.9083 20.0616C11.5181 20.4518 11.1084 20.6469 10.6793 20.6469L11.1475 14.5017L22.3258 4.43538C22.5989 4.16226 22.5989 4.0062 22.3258 3.96718C22.0917 3.88915 21.8381 3.94767 21.565 4.14276L7.75299 12.863L1.78341 10.9902C1.12012 10.7951 0.807985 10.5025 0.847001 10.1123C0.886018 9.72217 1.2957 9.39053 2.07603 9.11741L25.3106 0.104509C25.8958 -0.0905749 26.364 -0.0125411 26.7152 0.338611C27.0663 0.650746 27.1639 1.21649 27.0078 2.03585Z" fill="#DEA465"/>
</svg>
