<svg width="8" height="15" viewBox="0 0 8 15" fill="none" xmlns="http://www.w3.org/2000/svg">
<g clip-path="url(#clip0_2500_7846)">
<path d="M8.16691 6.9147L1.49172 0.239632C1.33733 0.0851213 1.13124 0 0.911483 0C0.691729 0 0.485633 0.0851213 0.331244 0.239632L-0.160337 0.731092C-0.480213 1.05133 -0.480213 1.57182 -0.160337 1.89157L5.44498 7.49689L-0.166557 13.1084C-0.320946 13.2629 -0.406189 13.4689 -0.406189 13.6885C-0.406189 13.9084 -0.320946 14.1144 -0.166557 14.269L0.325025 14.7604C0.479536 14.9149 0.68551 15 0.905264 15C1.12502 15 1.33111 14.9149 1.4855 14.7604L8.16691 8.0792C8.32167 7.9242 8.40667 7.71725 8.40618 7.49726C8.40667 7.2764 8.32167 7.06958 8.16691 6.9147Z" fill="white"/>
</g>
<defs>
<clipPath id="clip0_2500_7846">
<rect width="8" height="15" fill="white"/>
</clipPath>
</defs>
</svg>
