<svg width="93" height="43" viewBox="0 0 93 43" fill="none" xmlns="http://www.w3.org/2000/svg">
<path fill-rule="evenodd" clip-rule="evenodd" d="M13.719 0.035951C13.9467 0.0244071 14.1713 0.00832496 14.1765 0.00319086C14.194 -0.0142192 15.171 0.0438874 15.3711 0.0742426C15.4117 0.0803808 15.4803 0.0892793 15.5238 0.0939947C15.5672 0.0987205 15.6477 0.11038 15.7026 0.119906C15.7576 0.129432 15.8286 0.140923 15.8605 0.145431C15.8923 0.149937 15.9373 0.158626 15.9605 0.164734C15.9836 0.170839 16.0404 0.18369 16.0868 0.19329C16.133 0.202878 16.1851 0.214642 16.2025 0.219421C16.2198 0.22421 16.2648 0.235826 16.3025 0.245238C16.3739 0.263086 16.527 0.306742 16.5814 0.324738C16.7782 0.389923 16.8279 0.406811 16.8549 0.417863C16.8722 0.424952 16.896 0.434395 16.9076 0.438828C17.6344 0.717714 18.245 1.1755 18.6299 1.72998C18.7306 1.87505 18.8408 2.0748 18.901 2.22143L18.9224 2.27372C18.966 2.37987 19.0282 2.60667 19.028 2.65859C19.028 2.67474 19.0326 2.70767 19.0382 2.73178C19.0509 2.78572 19.0806 3.13809 19.0806 3.23332C19.0806 3.36502 19.0357 3.73747 19.0079 3.83697C19.0007 3.86284 18.9898 3.90284 18.9839 3.92584C18.9523 4.04666 18.9018 4.18813 18.8513 4.29705C18.8313 4.34018 18.8108 4.38488 18.8056 4.39639C18.8004 4.40788 18.7819 4.44082 18.7644 4.46958C18.747 4.49833 18.7281 4.53128 18.7223 4.54277C18.6467 4.69562 18.3838 5.0087 18.1956 5.17029C18.1353 5.22195 18.0838 5.26712 18.0809 5.27065C18.067 5.28761 17.8313 5.45124 17.731 5.51361C17.6177 5.58401 17.3479 5.72501 17.239 5.77064C17.2072 5.78399 17.1622 5.80317 17.1391 5.81327C17.0699 5.84344 16.9829 5.87831 16.9549 5.88718C16.9404 5.89174 16.8883 5.91021 16.8392 5.9282C16.7238 5.97037 16.5848 6.01508 16.4813 6.04328C16.4384 6.05496 16.388 6.06949 16.2965 6.09648C16.2787 6.10173 16.2567 6.10602 16.2477 6.10602C16.2386 6.10602 16.2081 6.11258 16.18 6.12062C16.1127 6.13981 16.0337 6.15911 15.9815 6.16912C15.9583 6.17354 15.8992 6.18525 15.8499 6.19512C15.8008 6.20499 15.7345 6.21667 15.7026 6.22109C15.6708 6.22551 15.6139 6.23463 15.5764 6.24134C15.5387 6.24806 15.4771 6.25781 15.4396 6.26302C15.4019 6.26823 15.3309 6.27809 15.2816 6.28493C15.2326 6.29179 15.1662 6.29949 15.1344 6.30207C15.1025 6.30465 15.0706 6.31157 15.0633 6.31746C15.0529 6.32587 15.0502 6.5299 15.0502 7.27344V8.21874L15.0771 8.22888C15.0918 8.23445 15.1451 8.24851 15.1954 8.26008C15.2458 8.27171 15.3106 8.28784 15.3395 8.29605C15.3684 8.30419 15.4206 8.31861 15.4553 8.3281C15.49 8.3376 15.5303 8.34902 15.5447 8.35351C15.5592 8.35801 15.5971 8.36929 15.629 8.37864C15.7025 8.40012 15.8681 8.45352 15.9026 8.46679C15.9171 8.47244 15.9478 8.48257 15.971 8.48942C15.9941 8.4962 16.0308 8.50862 16.0525 8.51684C16.0886 8.53068 16.1495 8.55375 16.2025 8.57376C16.2543 8.59325 16.32 8.61881 16.3393 8.62684C16.3508 8.63163 16.4148 8.65711 16.4813 8.68352C16.5479 8.70994 16.6118 8.73558 16.6234 8.74063C16.6523 8.75294 16.7347 8.78901 16.7918 8.81423C16.8179 8.82577 16.8592 8.84407 16.8839 8.85492C17.1826 8.98683 17.7151 9.24876 17.9651 9.38691C17.9912 9.40136 18.0527 9.43452 18.102 9.46068C18.1511 9.48684 18.2311 9.53095 18.2797 9.55865C18.3283 9.58626 18.3697 9.60892 18.3716 9.60892C18.3735 9.60892 18.4061 9.62773 18.444 9.65072C18.4818 9.6738 18.5151 9.69252 18.5179 9.69252C18.5207 9.69252 18.5598 9.71526 18.6045 9.74305C18.6493 9.77075 18.6931 9.79682 18.7017 9.80092C18.721 9.81015 18.7215 9.81041 18.9257 9.93309C19.0273 9.99421 19.0738 10.0221 19.1201 10.0503C19.1696 10.0805 19.2188 10.1112 19.3352 10.1833C20.037 10.6188 20.8467 11.1738 21.5799 11.7221C22.1903 12.1786 22.2096 12.1939 22.5323 12.4796C22.6625 12.5949 22.8779 12.7825 23.011 12.8967C23.1441 13.0108 23.2672 13.1165 23.2846 13.1318C23.3275 13.169 23.6043 13.3989 23.7529 13.5205C23.8074 13.5651 23.8801 13.6247 23.9313 13.6666L23.9617 13.6915C24.1743 13.8659 24.6998 14.2616 24.8894 14.39C25.2468 14.6321 25.4322 14.7469 25.4528 14.7392C25.4636 14.7351 25.4676 14.6745 25.4709 14.464C25.4756 14.1667 25.4798 14.1426 25.5396 14.0732C25.556 14.0542 25.5678 14.0395 25.5822 14.0283C25.6329 13.9886 25.716 13.9901 26.1423 13.9901C26.5618 13.9901 26.6387 13.9879 26.6882 14.0236C26.7026 14.034 26.7147 14.0476 26.7322 14.0654C26.7994 14.1335 26.8047 14.1671 26.8047 14.526C26.8047 14.7643 26.8079 14.8477 26.8178 14.8602C26.8284 14.8736 26.8638 14.8781 26.9993 14.8834C27.2952 14.8951 27.4493 14.9111 27.6164 14.9474C27.6549 14.9558 27.6948 14.9626 27.7052 14.9626C27.7155 14.9626 27.7385 14.967 27.7562 14.9725C27.7734 14.9777 27.8269 14.9937 27.8774 15.0089L27.8834 15.0107C28.0215 15.052 28.2176 15.1496 28.3008 15.2184C28.3657 15.2721 28.434 15.3519 28.4638 15.409C28.4673 15.4154 28.4721 15.4245 28.4771 15.434C28.4821 15.4436 28.4873 15.4535 28.4915 15.4615C28.561 15.5936 28.6507 16.0252 28.6495 16.2226C28.6493 16.2781 28.6219 16.4591 28.5958 16.5782C28.5377 16.843 28.3437 17.1372 28.0996 17.3306C27.8692 17.5132 27.5169 17.6641 27.1467 17.7387C27.1004 17.7481 27.0435 17.7599 27.0204 17.765C26.9973 17.77 26.9454 17.7768 26.9054 17.7799C26.8653 17.7829 26.8274 17.7905 26.8212 17.7967C26.8133 17.8045 26.8091 18.3354 26.8072 19.5718C26.8046 21.2229 26.8055 21.3367 26.8224 21.3489C26.8356 21.3586 26.9124 21.362 27.1186 21.362C27.2989 21.362 27.412 21.3663 27.4401 21.3742C27.5091 21.3937 27.5606 21.4356 27.6044 21.5084C27.6183 21.5315 27.6208 21.8766 27.6255 24.3891L27.6307 27.2437L27.7028 27.3901C27.7424 27.4707 27.7843 27.5578 27.7958 27.5836C27.8074 27.6095 27.8287 27.6565 27.8433 27.6882C27.8578 27.7198 27.8738 27.7551 27.8786 27.7666C27.9003 27.8181 27.9328 27.8943 27.9431 27.9182C27.9467 27.9265 27.9513 27.9371 27.9553 27.9468C27.9582 27.9538 27.961 27.9604 27.9629 27.9653C27.9657 27.9721 27.9705 27.9841 27.9758 27.9969C27.9793 28.0057 27.983 28.0147 27.9864 28.0228C27.9947 28.0429 28.0097 28.0805 28.0199 28.1064C28.0301 28.1323 28.0426 28.1629 28.0476 28.1744C28.0579 28.1977 28.1062 28.327 28.1198 28.3679C28.1247 28.3822 28.1434 28.4339 28.1614 28.4828C28.1977 28.5812 28.2474 28.7289 28.2741 28.8175C28.2836 28.8492 28.2949 28.8844 28.2993 28.8959C28.3036 28.9074 28.3154 28.9474 28.3256 28.9847C28.3358 29.0222 28.3498 29.0715 28.357 29.0945C28.3641 29.1176 28.3759 29.1623 28.3831 29.1939C28.3904 29.2256 28.401 29.2656 28.4068 29.2827C28.4125 29.3 28.4211 29.3329 28.4258 29.356C28.4305 29.379 28.4421 29.4284 28.4516 29.4658C28.4612 29.5031 28.4727 29.5549 28.4775 29.5808C28.4823 29.6067 28.4918 29.6561 28.4987 29.6906C28.5055 29.7251 28.5156 29.7769 28.521 29.8057C28.5264 29.8343 28.5379 29.8931 28.5464 29.9363C28.555 29.9795 28.562 30.0312 28.5621 30.0514C28.5621 30.0714 28.5667 30.1044 28.5723 30.1245C28.578 30.1446 28.5873 30.2081 28.5933 30.2657C28.6105 30.4325 28.6503 30.9811 28.6502 31.0499C28.6501 31.1748 28.5902 31.911 28.5775 31.9428C28.5739 31.9521 28.5666 31.9949 28.5613 32.038C28.556 32.0812 28.545 32.1518 28.5367 32.1949C28.5285 32.238 28.5163 32.3036 28.5098 32.3405C28.5033 32.3775 28.4955 32.4117 28.4925 32.4164C28.4895 32.4211 28.483 32.4473 28.478 32.4747C28.4677 32.5302 28.4521 32.5977 28.435 32.6602C28.4317 32.6721 28.4269 32.6894 28.422 32.7072C28.4176 32.7236 28.4129 32.7405 28.4091 32.7544C28.3382 33.0127 28.2285 33.346 28.1615 33.5072C28.1566 33.5187 28.1378 33.5657 28.1196 33.6118C28.1013 33.6577 28.08 33.7098 28.0722 33.7273C28.0643 33.745 28.0409 33.7991 28.0203 33.8476C27.8991 34.1323 27.5878 34.7389 27.4519 34.9554C27.4392 34.9755 27.4269 34.997 27.4245 35.0033C27.4207 35.0133 27.2639 35.2722 27.194 35.3837C27.1811 35.4043 27.1441 35.4636 27.1077 35.5221L27.0944 35.5435C26.9971 35.7 26.5955 36.2963 26.4341 36.5238C26.4117 36.5555 26.381 36.6003 26.3658 36.6233C26.3506 36.6462 26.3022 36.7145 26.2583 36.7748C26.2144 36.8353 26.1704 36.8964 26.1605 36.9108C26.1507 36.9252 26.1162 36.9745 26.0838 37.0205C25.9279 37.2423 25.6519 37.6682 25.5657 37.8203C25.4785 37.9741 25.3313 38.2397 25.3133 38.2754C25.3018 38.2984 25.2615 38.3784 25.2239 38.4531C25.1862 38.5278 25.1447 38.6125 25.1315 38.6414C25.1246 38.6563 25.1141 38.6795 25.1028 38.7043C25.0924 38.7271 25.0815 38.7514 25.072 38.7721C25.0525 38.8152 25.0295 38.8638 25.0208 38.88C25.0122 38.8963 25.0052 38.9136 25.0052 38.9185C25.0052 38.9235 24.9917 38.9571 24.9754 38.9936C24.9471 39.0558 24.8841 39.2105 24.8515 39.2975C24.8284 39.3591 24.8035 39.4236 24.794 39.4465C24.7893 39.458 24.7655 39.5285 24.741 39.6033C24.7296 39.6385 24.7177 39.674 24.7075 39.7035L18.1112 30.8745L26.2602 21.9411H21.0449L12.8959 31.2318V21.9411H8.65837V42.8276C6.24161 42.8261 4.52474 42.8236 4.52256 42.82C4.51947 42.8152 4.49434 42.8048 4.46672 42.7971C4.39536 42.7772 4.32575 42.7058 4.30074 42.6269C4.28414 42.5744 4.28329 42.5578 4.29407 42.4967C4.31453 42.3807 4.33732 42.0272 4.33298 41.8933C4.32601 41.6785 4.3058 41.3728 4.29511 41.3203C4.28949 41.2927 4.28489 41.2484 4.28489 41.2219C4.28489 41.1953 4.27793 41.1332 4.26943 41.0838C4.26093 41.0344 4.24877 40.9587 4.24241 40.9157C4.23605 40.8725 4.22405 40.8067 4.21574 40.7692C4.20744 40.7318 4.20066 40.6899 4.20067 40.676C4.2007 40.6622 4.19389 40.6269 4.18557 40.5976C4.17724 40.5683 4.16494 40.5162 4.15825 40.4817C4.15155 40.4472 4.13942 40.3969 4.1313 40.3699C4.12318 40.3429 4.11652 40.312 4.11652 40.3012C4.11652 40.2903 4.10998 40.2607 4.10197 40.2352C4.09397 40.2097 4.08173 40.1676 4.07478 40.1418C4.03858 40.007 3.98025 39.809 3.96387 39.7653C3.95632 39.7452 3.94193 39.7005 3.9319 39.6661C3.92189 39.6316 3.91023 39.5986 3.90603 39.5928C3.9018 39.5871 3.89584 39.5707 3.89276 39.5562C3.88686 39.5288 3.86941 39.4784 3.84749 39.4255C3.84034 39.4083 3.82736 39.373 3.81865 39.3471C3.80994 39.3212 3.79705 39.286 3.78999 39.2687C3.78294 39.2514 3.77252 39.2256 3.76684 39.2112C3.76116 39.1968 3.75038 39.1709 3.74287 39.1537C3.73535 39.1364 3.70688 39.0682 3.6796 39.0021C3.6523 38.9359 3.61396 38.8473 3.59438 38.8052C3.5748 38.7631 3.55879 38.7266 3.55879 38.7239C3.55879 38.7151 3.33623 38.2698 3.29122 38.1885C3.2667 38.1443 3.23241 38.0822 3.21504 38.0505C3.0226 37.7001 2.7648 37.2986 2.42154 36.8145C2.39011 36.7702 2.33362 36.6905 2.296 36.6375C2.15805 36.4431 1.88815 36.05 1.77804 35.8829C1.64133 35.6756 1.37128 35.2519 1.3356 35.1886C1.32844 35.1759 1.30091 35.1289 1.27439 35.084C1.15773 34.8867 1.10688 34.7984 1.10688 34.7932C1.10688 34.7902 1.09575 34.7702 1.08215 34.7487C1.03143 34.6687 0.811432 34.2422 0.738395 34.0823C0.720016 34.0421 0.693054 33.9832 0.678489 33.9516C0.637597 33.8627 0.611762 33.8039 0.577393 33.7216C0.568995 33.7014 0.544328 33.6426 0.522577 33.5909C0.500825 33.5391 0.479243 33.485 0.474602 33.4706C0.469971 33.4562 0.451482 33.4045 0.433529 33.3556C0.390668 33.2389 0.314932 33.0084 0.280668 32.8902C0.231862 32.722 0.223927 32.6926 0.207331 32.6184C0.198335 32.5782 0.186664 32.5287 0.181392 32.5086C0.163461 32.4401 0.140151 32.3362 0.133311 32.2942C0.129554 32.2712 0.119736 32.2171 0.111486 32.174C0.103236 32.1309 0.0918187 32.0564 0.0860929 32.0084C0.0803797 31.9605 0.0729922 31.9169 0.0696876 31.9116C0.0525769 31.884 0.0136934 31.2922 0.0134093 31.0551C0.0131356 30.8258 0.0513561 30.2362 0.0703612 30.1768C0.0740228 30.1652 0.0814734 30.1194 0.0869044 30.0748C0.0923436 30.0302 0.103909 29.9538 0.112602 29.9049C0.121293 29.856 0.132585 29.787 0.13771 29.7516C0.142825 29.716 0.150328 29.6816 0.154379 29.675C0.158441 29.6685 0.165754 29.6388 0.170648 29.609C0.182023 29.5395 0.198513 29.4601 0.211257 29.4135C0.221254 29.3769 0.248099 29.2731 0.265346 29.2043C0.270398 29.1843 0.282216 29.1395 0.291623 29.105C0.306861 29.049 0.321372 29 0.378187 28.8122C0.38689 28.7834 0.400213 28.7435 0.407789 28.7233C0.415377 28.7032 0.427205 28.6679 0.434087 28.6449C0.44097 28.6219 0.451071 28.5916 0.456544 28.5775C0.462016 28.5632 0.475959 28.5233 0.487525 28.4885C0.499089 28.4538 0.512569 28.4159 0.517473 28.4044C0.522388 28.3929 0.539235 28.3482 0.554914 28.3051C0.570595 28.2619 0.589273 28.2125 0.596419 28.1953C0.607753 28.1679 0.62381 28.1276 0.654549 28.0489C0.678195 27.9885 0.712564 27.9069 0.734685 27.8588C0.748387 27.8289 0.759603 27.8014 0.759603 27.7977C0.759603 27.794 0.776177 27.7576 0.796433 27.7166C0.816689 27.6758 0.833263 27.6392 0.833263 27.6352C0.833263 27.627 0.941803 27.3938 0.965144 27.3519C0.978619 27.3277 0.980592 26.9585 0.980592 24.4583C0.980592 22.1989 0.98338 21.5819 0.993751 21.5428C1.01194 21.4744 1.09367 21.3931 1.16258 21.3751C1.19652 21.3662 1.30261 21.362 1.49552 21.362C1.65124 21.362 1.78613 21.3592 1.79528 21.3557C1.81037 21.3499 1.81193 21.1833 1.81193 19.5741C1.81193 18.1666 1.8092 17.7967 1.79878 17.7883C1.79155 17.7824 1.76431 17.7754 1.73827 17.7726C1.64847 17.763 1.50166 17.7348 1.39099 17.7059C1.26697 17.6734 1.2464 17.6675 1.17001 17.6423C0.641553 17.4673 0.276701 17.1621 0.116548 16.7611C0.0587961 16.6166 0.055155 16.603 0.0212596 16.4057C-0.00707951 16.2407 -0.00707951 16.1854 0.0212175 15.9979C0.0839151 15.5822 0.136405 15.4349 0.275491 15.2841C0.379029 15.1719 0.528407 15.0856 0.759603 15.0049C0.823708 14.9825 0.98694 14.9459 1.08608 14.9318C1.12384 14.9264 1.17594 14.9172 1.20183 14.9112C1.22774 14.9053 1.27498 14.9003 1.30682 14.9001C1.33864 14.8999 1.39191 14.8954 1.42518 14.89C1.45845 14.8845 1.55079 14.8792 1.63039 14.8783C1.70998 14.8772 1.78337 14.8721 1.79351 14.8669C1.81045 14.8581 1.81193 14.8316 1.81193 14.5374C1.81193 14.322 1.816 14.2034 1.82439 14.1744C1.8431 14.1098 1.89196 14.0481 1.94848 14.0175L1.99894 13.9901H2.47863C2.9461 13.9901 2.9594 13.9907 3.0009 14.0122C3.05899 14.0424 3.11206 14.1069 3.12722 14.166C3.13534 14.1975 3.13963 14.3027 3.13929 14.4613C3.139 14.5968 3.14149 14.718 3.14481 14.7306C3.14812 14.7432 3.15883 14.7535 3.1686 14.7535C3.20219 14.7535 3.52864 14.5467 3.85344 14.3197C4.00952 14.2105 4.07978 14.1594 4.24878 14.032C4.75463 13.6507 5.5565 12.9817 6.2465 12.3656C6.31649 12.303 6.43295 12.2069 6.5053 12.1516C6.57764 12.0965 6.63921 12.0484 6.6421 12.0447C6.645 12.0411 6.76338 11.9513 6.90518 11.8451C7.59453 11.3289 8.3196 10.8218 8.89933 10.4505C9.09542 10.3249 9.1323 10.3013 9.18866 10.2657C9.22057 10.2457 9.28078 10.2073 9.32256 10.1805C9.36433 10.1537 9.40053 10.1318 9.40293 10.1318C9.40534 10.1318 9.4357 10.113 9.47036 10.09C9.50501 10.067 9.53812 10.0482 9.54395 10.0482C9.5497 10.0482 9.56 10.0415 9.56677 10.0334C9.57355 10.0252 9.59422 10.0109 9.61284 10.0012C9.63136 9.99164 9.65598 9.97822 9.66748 9.97138C9.67914 9.96454 9.76432 9.91385 9.85696 9.85863C10.05 9.74373 10.2837 9.60892 10.2899 9.60892C10.2922 9.60892 10.3117 9.59789 10.3334 9.58438C10.3549 9.57088 10.4046 9.54258 10.4437 9.52164C10.4827 9.50061 10.5443 9.46761 10.5804 9.44812C10.6166 9.42863 10.6675 9.40101 10.6936 9.38674C10.9585 9.24124 11.4959 8.977 11.7722 8.85629C11.7954 8.8462 11.8356 8.82842 11.8616 8.8168C11.8877 8.80525 11.98 8.76653 12.0668 8.73079C12.2391 8.65984 12.2494 8.65557 12.3036 8.63291C12.3239 8.62436 12.3949 8.59786 12.4615 8.57393C12.528 8.54999 12.5919 8.52604 12.6035 8.52069C12.6151 8.51541 12.653 8.50199 12.6877 8.49085C12.7224 8.47964 12.7674 8.46479 12.7877 8.45773C12.872 8.42832 12.9653 8.39805 13.0244 8.38064C13.0592 8.3705 13.0994 8.35837 13.1139 8.35373C13.1284 8.34916 13.1686 8.33773 13.2034 8.32831C13.238 8.31896 13.2902 8.30468 13.3191 8.29662C13.3481 8.28855 13.3836 8.27963 13.3981 8.27685C13.4777 8.26136 13.5535 8.24123 13.5744 8.2301L13.598 8.21746V7.2728C13.598 6.52968 13.5952 6.32591 13.5848 6.31762C13.5776 6.31184 13.5409 6.30445 13.5033 6.30123C13.4657 6.298 13.3804 6.28787 13.3139 6.27868C13.2473 6.2695 13.1562 6.25781 13.1115 6.2527C13.0667 6.24759 13.0246 6.24005 13.0179 6.23595C13.0113 6.23185 12.9768 6.22475 12.9414 6.22017C12.9061 6.21559 12.8416 6.20452 12.7982 6.19557C12.7548 6.18663 12.6912 6.17436 12.6569 6.16829C12.6226 6.16221 12.5907 6.15485 12.5859 6.15191C12.5811 6.14897 12.5546 6.14264 12.5272 6.13784C12.4695 6.12773 12.32 6.09129 12.251 6.07046C12.225 6.06261 12.1823 6.05037 12.1563 6.04328C12.0686 6.01938 12.0039 5.99906 11.9691 5.98453C11.9501 5.97659 11.9256 5.97008 11.9145 5.97008C11.9035 5.97008 11.8915 5.96537 11.888 5.95963C11.8844 5.95388 11.8724 5.94917 11.8615 5.94917C11.8503 5.94917 11.8258 5.94258 11.8067 5.93454C11.7878 5.92649 11.7509 5.91188 11.7248 5.9021C11.6988 5.89229 11.6692 5.88006 11.6592 5.87489C11.6491 5.86975 11.6365 5.86552 11.6312 5.86552C11.6181 5.86552 11.3438 5.74395 11.2197 5.68319C10.7943 5.47476 10.4401 5.20579 10.1532 4.87332C10.1221 4.83735 9.97431 4.63597 9.94506 4.58983C9.908 4.53144 9.79966 4.32515 9.77745 4.2709C9.7747 4.26402 9.76973 4.25198 9.76441 4.23912C9.76089 4.23048 9.7572 4.22148 9.75386 4.21339C9.69836 4.07854 9.63651 3.87574 9.61833 3.769C9.57887 3.53666 9.57329 3.46773 9.57338 3.20957C9.57355 2.94967 9.57561 2.92277 9.61944 2.61355C9.63102 2.53207 9.68215 2.35796 9.71929 2.27372C9.72692 2.25647 9.73962 2.22588 9.74759 2.20575C9.78602 2.10862 9.91152 1.87924 9.98915 1.7642C10.1 1.59995 10.1489 1.53922 10.3358 1.33401C10.383 1.28216 10.6047 1.0863 10.6936 1.01789C10.7686 0.960114 11.0157 0.790995 11.0408 0.780159C11.056 0.77362 11.0669 0.767196 11.1249 0.730385C11.2109 0.67595 11.4446 0.55914 11.5933 0.496276C11.7837 0.415783 12.0733 0.315369 12.2404 0.271891C12.2945 0.257827 12.3737 0.236558 12.4351 0.219587C12.4809 0.206957 12.5552 0.191063 12.6298 0.17796C12.6558 0.173391 12.6985 0.164451 12.7246 0.158103C12.7506 0.151746 12.8193 0.139229 12.8772 0.130279C12.935 0.121328 13.0026 0.109407 13.0273 0.103772C13.0519 0.098146 13.0874 0.0935767 13.1062 0.0936186C13.1249 0.0936596 13.1876 0.0866856 13.2454 0.0781323C13.3616 0.0609733 13.5413 0.0449645 13.719 0.035951ZM12.8959 42.8289V42.829H8.65837V42.8276C9.92696 42.8283 11.3884 42.8288 12.8959 42.8289ZM12.8959 42.8289V36.5919L15.308 33.9606L21.8901 42.826C19.6866 42.8283 16.1818 42.8294 12.8959 42.8289ZM21.8901 42.826C23.2577 42.8246 24.1241 42.8226 24.1256 42.82C24.1287 42.8152 24.1524 42.8052 24.1784 42.798C24.3074 42.7621 24.3895 42.61 24.3535 42.4736C24.3144 42.3258 24.3142 41.6649 24.353 41.3286C24.374 41.1475 24.4078 40.9116 24.4272 40.811C24.4333 40.7794 24.4421 40.7301 24.4466 40.7013C24.4511 40.6725 24.4598 40.6278 24.466 40.6019C24.4723 40.5761 24.4829 40.5266 24.4898 40.4921C24.4967 40.4576 24.509 40.4085 24.517 40.3832C24.525 40.3576 24.5316 40.3266 24.5316 40.3143C24.5316 40.302 24.5382 40.2711 24.5462 40.2456C24.5542 40.2201 24.5664 40.1782 24.5731 40.1523C24.6015 40.0445 24.6154 39.9963 24.6412 39.9158C24.6562 39.869 24.6684 39.8251 24.6684 39.818C24.6684 39.8109 24.6748 39.7903 24.6826 39.7723C24.6867 39.7626 24.696 39.7368 24.7075 39.7035L27.0425 42.829H21.8924L21.8901 42.826ZM13.4822 1.67236C13.4388 1.66714 13.3677 1.65819 13.3243 1.65245C13.2325 1.64031 12.7673 1.6402 12.6824 1.65231C12.6506 1.65686 12.5937 1.66352 12.5562 1.66713C12.5186 1.67074 12.4689 1.67784 12.4457 1.68292C12.4225 1.68799 12.3657 1.69989 12.3193 1.70938C12.2731 1.71885 12.2162 1.73271 12.1931 1.74016C12.17 1.7476 12.1226 1.76205 12.0879 1.77228C12.0532 1.78249 12.0177 1.79425 12.009 1.7984C12.0003 1.80255 11.9459 1.82628 11.888 1.85114C11.6951 1.93398 11.5506 2.034 11.4015 2.18783C11.3481 2.24293 11.2787 2.32715 11.2474 2.37497C11.1943 2.45589 11.1156 2.60434 11.1011 2.65085C11.0977 2.66196 11.0869 2.69224 11.077 2.71812C11.0321 2.83711 11.0203 2.92537 11.02 3.14683C11.0197 3.35704 11.0246 3.40184 11.0638 3.54941C11.1151 3.7428 11.2155 3.92368 11.3503 4.06523C11.4065 4.12423 11.5541 4.24023 11.6407 4.29331C11.7203 4.34215 11.9493 4.45389 11.9697 4.45389C11.9774 4.45389 11.9881 4.45778 11.9937 4.46255C11.9992 4.46731 12.0534 4.48656 12.1142 4.50532C12.279 4.55623 12.2873 4.55845 12.3129 4.55845C12.3259 4.55845 12.3454 4.5632 12.3563 4.56898C12.3672 4.57477 12.406 4.58424 12.4425 4.59002C12.479 4.59581 12.5586 4.60869 12.6193 4.61866C12.7792 4.64488 13.2188 4.6444 13.3875 4.61781C13.6095 4.58284 13.6777 4.56792 13.861 4.51422C13.9328 4.4932 14.0879 4.4342 14.1715 4.39611C14.2493 4.36067 14.3114 4.33887 14.3345 4.33887C14.372 4.33887 14.4999 4.38669 14.5909 4.43471C14.6017 4.44039 14.6372 4.45358 14.6699 4.46402C14.7025 4.47448 14.7411 4.48763 14.7556 4.49327C14.8756 4.54015 15.0959 4.58964 15.3501 4.62687C15.5022 4.64914 15.9071 4.64345 16.0709 4.61676C16.1845 4.59825 16.2336 4.59025 16.2822 4.57988C16.3198 4.57188 16.357 4.56247 16.4234 4.54572C16.492 4.52842 16.5684 4.50472 16.6054 4.48926C16.6243 4.48131 16.646 4.4748 16.6534 4.4748C16.6608 4.4748 16.6914 4.46304 16.7213 4.44866C16.7514 4.43428 16.7797 4.42252 16.7844 4.42252C16.7889 4.42252 16.8233 4.40687 16.8607 4.38774C17.3438 4.14026 17.561 3.86807 17.6443 3.40581C17.6593 3.32221 17.6616 3.26713 17.6567 3.09734C17.6508 2.88865 17.6447 2.84951 17.5967 2.70767C17.5772 2.64959 17.5121 2.5111 17.4677 2.43304C17.3891 2.29484 17.1893 2.08681 17.041 1.989C16.9423 1.92397 16.7177 1.8084 16.6899 1.8084C16.6816 1.8084 16.6705 1.80431 16.665 1.7993C16.6595 1.79428 16.6266 1.7821 16.5918 1.77221C16.5571 1.76232 16.5097 1.74806 16.4867 1.74052C16.4635 1.73298 16.428 1.72347 16.4077 1.71941C16.3874 1.71534 16.3377 1.70534 16.2972 1.69716C16.2567 1.68899 16.1857 1.67785 16.1393 1.67238C16.093 1.66693 16.022 1.65781 15.9815 1.65212C15.8851 1.6386 15.4326 1.63854 15.3449 1.65205C15.3073 1.65783 15.2409 1.66705 15.1975 1.6725C15.0939 1.68555 14.9166 1.72196 14.8503 1.74383C14.83 1.7505 14.7921 1.7629 14.766 1.77138C14.6663 1.80385 14.6218 1.82176 14.5164 1.87178C14.4197 1.91765 14.3997 1.92343 14.3375 1.92343C14.2765 1.92343 14.2555 1.91763 14.1722 1.87759C13.9526 1.77211 13.7086 1.69953 13.4822 1.67236ZM13.5927 15.1457V13.917V12.6884L13.5449 12.6853C13.5187 12.6836 13.4947 12.6847 13.4916 12.6878C13.4884 12.6909 13.4247 12.6983 13.3499 12.7042C13.2751 12.7102 13.1665 12.7219 13.1086 12.7303C13.0508 12.7386 12.9689 12.7501 12.9269 12.7556C12.8848 12.7613 12.8454 12.7689 12.8393 12.7726C12.8332 12.7764 12.7989 12.7836 12.7632 12.7885C12.7275 12.7935 12.6651 12.805 12.6245 12.8141C12.5841 12.8232 12.5296 12.8343 12.5035 12.8388C12.4775 12.8432 12.4349 12.8528 12.4088 12.86C12.3827 12.8672 12.345 12.877 12.3247 12.8818C12.2461 12.9006 12.149 12.9256 12.1036 12.9388C12.0776 12.9463 12.0351 12.9583 12.009 12.9653C11.9829 12.9723 11.9427 12.9841 11.9195 12.9915C11.8964 12.9988 11.849 13.0128 11.8143 13.0225C11.7795 13.0323 11.7416 13.044 11.7301 13.0487C11.7185 13.0532 11.6618 13.0721 11.6039 13.0903C11.546 13.1087 11.4891 13.1274 11.4776 13.1318C11.4659 13.1364 11.4399 13.1457 11.4197 13.1526C11.286 13.198 11.2554 13.2095 11.2466 13.2177C11.2411 13.2227 11.228 13.2269 11.2175 13.2269C11.207 13.2269 11.1901 13.2314 11.1801 13.2369C11.1701 13.2425 11.0931 13.2735 11.0093 13.3057C10.9253 13.338 10.8425 13.3708 10.8252 13.3786C10.7945 13.3922 10.7795 13.3986 10.6672 13.4464C10.6383 13.4588 10.6004 13.4752 10.5831 13.4829C10.5657 13.4907 10.5183 13.5117 10.4778 13.5298C10.4373 13.5478 10.3663 13.58 10.3199 13.6012C10.2237 13.6454 9.6468 13.9335 9.58333 13.969C9.56025 13.9819 9.52234 14.0032 9.49918 14.0162C9.47602 14.0293 9.42627 14.0564 9.38869 14.0766C9.35104 14.0966 9.29657 14.1262 9.26766 14.1422C9.22083 14.168 9.19955 14.1803 9.11995 14.2272C9.10854 14.2339 9.02594 14.2833 8.93612 14.337C8.84649 14.3907 8.76594 14.4383 8.75728 14.4426C8.74853 14.447 8.72151 14.4635 8.69706 14.4792C8.67253 14.4949 8.62286 14.5262 8.58657 14.5489C8.40153 14.6639 7.89485 14.9973 7.83126 15.046C7.81099 15.0614 7.74702 15.1063 7.68915 15.1457C7.63127 15.185 7.58157 15.22 7.5787 15.2237C7.57576 15.2274 7.51675 15.2724 7.44756 15.3239C7.33568 15.4071 7.22071 15.4939 7.04644 15.6267C6.43743 16.0905 6.403 16.1166 6.14751 16.3066C5.70107 16.6384 5.3096 16.9008 5.01099 17.0683C4.94458 17.1055 4.5642 17.2936 4.50062 17.3206C4.41213 17.3582 4.36032 17.3793 4.29542 17.4042C4.26937 17.4143 4.23859 17.4265 4.22701 17.4316C4.21544 17.4366 4.17755 17.4497 4.14283 17.4606C4.10811 17.4714 4.06785 17.4851 4.05338 17.4908C4.02199 17.5032 3.7944 17.5711 3.70085 17.596C3.6777 17.602 3.63271 17.6143 3.60088 17.6229C3.56905 17.6316 3.50749 17.6462 3.46408 17.6555C3.42067 17.6647 3.36858 17.676 3.34832 17.6808C3.32807 17.6856 3.27842 17.6972 3.238 17.7067C3.19758 17.7161 3.1597 17.7287 3.15381 17.7345C3.14223 17.746 3.13187 21.227 3.14319 21.3061C3.1466 21.3301 3.15574 21.3521 3.16351 21.355C3.17125 21.358 3.34919 21.3615 3.55892 21.3629L3.94022 21.3654L3.95482 21.3245C3.96285 21.302 3.97381 21.2671 3.97915 21.247C3.98449 21.2269 3.99577 21.1846 4.00422 21.1529C4.04185 21.0119 4.06143 20.9341 4.074 20.8758C4.08144 20.8413 4.09199 20.7965 4.09748 20.7764C4.10295 20.7563 4.11169 20.7092 4.11691 20.6719C4.12212 20.6345 4.13079 20.5827 4.13618 20.5568C4.14157 20.531 4.14763 20.4679 4.14967 20.4166L4.15335 20.3235L4.09021 20.3092C4.05549 20.3013 4.01546 20.2919 4.00126 20.2883C3.98706 20.2847 3.95347 20.2599 3.92662 20.2332C3.84842 20.1555 3.84113 20.1115 3.81121 19.5374C3.80642 19.4454 3.79748 19.3371 3.79134 19.2968C3.78522 19.2566 3.78012 19.1813 3.78004 19.1296C3.77997 19.0778 3.77434 18.9877 3.76754 18.9293C3.75144 18.791 3.76903 18.7259 3.84195 18.6542C3.88751 18.6094 3.9691 18.5702 4.01656 18.5702C4.02657 18.5702 4.05673 18.5633 4.08355 18.555C4.11037 18.5466 4.15125 18.5351 4.17441 18.5293C4.19755 18.5235 4.24254 18.5118 4.27437 18.5031C4.35875 18.4801 4.50459 18.4439 4.55385 18.4339C4.57734 18.429 4.60811 18.4206 4.62225 18.4151C4.63638 18.4097 4.67399 18.3996 4.70582 18.3928C4.75937 18.3813 4.78647 18.3743 4.93208 18.3348C4.96102 18.3269 5.006 18.3152 5.03204 18.3087C5.05808 18.3023 5.10308 18.2906 5.13202 18.2828C5.16096 18.275 5.21541 18.2607 5.25304 18.2512C5.29066 18.2417 5.33801 18.2297 5.35827 18.2246C5.37852 18.2193 5.42115 18.2082 5.45298 18.1998C5.61272 18.1574 5.64028 18.1501 5.67923 18.14C5.70237 18.1341 5.745 18.1228 5.77394 18.1151C5.80287 18.1073 5.84549 18.0961 5.86865 18.0903C5.91123 18.0796 5.99351 18.0577 6.08963 18.0315C6.11857 18.0237 6.16119 18.0125 6.18435 18.0066C6.20749 18.0008 6.25366 17.9888 6.28694 17.9798C6.32023 17.9709 6.37467 17.9564 6.40796 17.9475C6.44125 17.9386 6.48505 17.9269 6.5053 17.9216C6.58538 17.9006 6.66079 17.8804 6.72102 17.8638C6.75422 17.8547 6.79464 17.8438 6.8133 17.8388L6.81573 17.8381C6.8331 17.8335 6.87335 17.8226 6.90518 17.8139C6.93702 17.8052 6.982 17.7933 7.00516 17.7872C7.08878 17.7658 7.17444 17.7427 7.22086 17.729C7.24693 17.7214 7.28718 17.7101 7.31032 17.7039L7.34056 17.6959C7.36396 17.6898 7.39255 17.6821 7.41554 17.676C7.45028 17.6668 7.49999 17.653 7.52605 17.6453C7.55213 17.6378 7.59475 17.6259 7.62074 17.6191C7.68636 17.6021 7.77496 17.5779 7.83126 17.5615C7.85725 17.554 7.89987 17.5423 7.92594 17.5354C7.95201 17.5286 7.98804 17.5185 8.00609 17.5131C8.02414 17.5078 8.08338 17.4913 8.13767 17.4768C8.19196 17.4623 8.26244 17.443 8.29424 17.4341C8.32611 17.4251 8.36637 17.4139 8.3837 17.4092C8.40103 17.4046 8.44129 17.3931 8.47316 17.3836C8.50496 17.3742 8.54758 17.3623 8.56785 17.3572C8.58812 17.352 8.62955 17.3405 8.66 17.3316C8.67518 17.3271 8.69517 17.3212 8.71516 17.3153C8.73523 17.3095 8.75522 17.3036 8.7704 17.2992C8.80085 17.2902 8.84228 17.2788 8.86253 17.2738C8.89752 17.2651 8.94976 17.2502 9.06771 17.215C9.0967 17.2063 9.13693 17.1951 9.15718 17.1902C9.17742 17.1851 9.22005 17.1733 9.25188 17.1638C9.2837 17.1543 9.32393 17.1426 9.34134 17.1379C9.35867 17.1332 9.38706 17.1246 9.40448 17.119C9.42181 17.1132 9.4574 17.1028 9.48339 17.0958C9.50947 17.0886 9.55202 17.0765 9.5781 17.0686C9.60409 17.0608 9.66576 17.0427 9.71483 17.0282C9.85456 16.9872 9.91667 16.9687 9.96221 16.9543C9.98529 16.947 10.0256 16.9354 10.0517 16.9285C10.0778 16.9216 10.118 16.9099 10.1411 16.9025C10.1642 16.8952 10.2116 16.8811 10.2463 16.8714C10.2811 16.8616 10.319 16.85 10.3305 16.8455C10.342 16.841 10.38 16.8291 10.4147 16.819C10.4494 16.809 10.4887 16.7965 10.502 16.7914C10.5153 16.7862 10.5343 16.7821 10.5441 16.782C10.5539 16.782 10.5756 16.7749 10.5921 16.7663C10.6087 16.7577 10.629 16.7507 10.6372 16.7507C10.6516 16.7507 10.7871 16.7096 10.862 16.6825C10.8822 16.6752 10.9414 16.6564 10.9935 16.6407C11.0456 16.6252 11.1048 16.6063 11.125 16.5989C11.1453 16.5915 11.2045 16.5726 11.2565 16.5568C11.3711 16.5223 11.4388 16.5004 11.467 16.4891C11.4785 16.4844 11.5141 16.4725 11.546 16.4627C11.5778 16.4528 11.6204 16.4387 11.6407 16.4315C11.6609 16.4242 11.7012 16.411 11.7301 16.4021C11.7933 16.3828 11.8488 16.3638 11.8775 16.3518C11.889 16.347 11.9269 16.334 11.9616 16.3232C12.022 16.3042 12.0469 16.2948 12.121 16.2631C12.1393 16.2552 12.1615 16.2488 12.1704 16.2488C12.1793 16.2488 12.1891 16.2447 12.1923 16.2396C12.1955 16.2345 12.2088 16.2279 12.2219 16.2249C12.2456 16.2195 12.3738 16.1735 12.4141 16.1559C12.4257 16.1509 12.4565 16.1385 12.4826 16.1284C12.5086 16.1183 12.5549 16.0989 12.5854 16.0852C12.6159 16.0717 12.6451 16.0606 12.6503 16.0606C12.6554 16.0606 12.6732 16.0536 12.6895 16.0451C12.7059 16.0364 12.7572 16.0126 12.8035 15.992C12.9519 15.926 13.0206 15.8893 13.0305 15.8708C13.0359 15.8609 13.0404 15.8208 13.0407 15.7816C13.0409 15.7424 13.0455 15.6891 13.0508 15.6632C13.056 15.6374 13.0631 15.5668 13.0666 15.5064C13.0754 15.3545 13.0951 15.2941 13.155 15.2347C13.1816 15.2085 13.2223 15.1805 13.2454 15.1725C13.2692 15.1643 13.3538 15.1553 13.4401 15.1518L13.5927 15.1457ZM15.5238 12.7304C15.463 12.7214 15.3531 12.7097 15.2795 12.7044C15.206 12.6991 15.1299 12.6918 15.1105 12.6881C15.086 12.6836 15.0713 12.6862 15.0626 12.6965C15.053 12.7079 15.0507 12.9997 15.0528 13.9286L15.0554 15.1457L15.208 15.1518C15.2942 15.1553 15.3789 15.1643 15.4028 15.1725C15.4258 15.1805 15.4666 15.2085 15.4931 15.2347C15.553 15.2941 15.5728 15.3545 15.5816 15.5064C15.585 15.5668 15.5922 15.6374 15.5974 15.6632C15.6027 15.6891 15.6073 15.7444 15.6074 15.786C15.6078 15.8448 15.6122 15.8661 15.6268 15.8807C15.6447 15.8985 15.7045 15.929 15.8605 15.9997C15.898 16.0168 15.9423 16.0375 15.9587 16.0457C15.9751 16.0539 15.9927 16.0606 15.9979 16.0606C16.003 16.0606 16.0322 16.0717 16.0627 16.0852C16.0934 16.0989 16.1396 16.1183 16.1657 16.1284C16.1917 16.1385 16.2225 16.1509 16.234 16.1559C16.2744 16.1735 16.4026 16.2195 16.4263 16.2249C16.4394 16.2279 16.4527 16.2345 16.4559 16.2396C16.459 16.2447 16.4689 16.2488 16.4777 16.2488C16.4867 16.2488 16.5089 16.2552 16.5271 16.2631C16.6013 16.2948 16.6261 16.3042 16.6865 16.3232C16.7213 16.334 16.7592 16.347 16.7708 16.3518C16.7993 16.3638 16.8548 16.3828 16.918 16.4021C16.947 16.411 16.9872 16.4242 17.0075 16.4315C17.0278 16.4387 17.0704 16.4528 17.1022 16.4627C17.134 16.4725 17.1695 16.4844 17.1811 16.4891C17.2108 16.5011 17.2815 16.5239 17.3916 16.5572C17.4437 16.573 17.5029 16.5918 17.5231 16.5992C17.5434 16.6065 17.6026 16.6257 17.6547 16.6416C17.7068 16.6576 17.8039 16.6879 17.8704 16.7091C17.937 16.7303 18.0199 16.7558 18.0546 16.7659C18.0894 16.7759 18.1343 16.789 18.1545 16.7948C18.1748 16.8007 18.207 16.812 18.2259 16.8199C18.245 16.8279 18.2699 16.8344 18.2813 16.8344C18.2928 16.8344 18.3103 16.8388 18.3204 16.8442C18.3305 16.8496 18.3671 16.8619 18.4018 16.8716C18.4366 16.8812 18.4839 16.8951 18.507 16.9024C18.5794 16.9252 18.8053 16.9916 18.8807 17.0121C18.9251 17.0242 18.9763 17.0395 19.0753 17.0701C19.0985 17.0772 19.1387 17.089 19.1648 17.0959C19.1908 17.1029 19.2263 17.1132 19.2437 17.119C19.261 17.1246 19.2895 17.1332 19.3068 17.1379C19.3242 17.1426 19.3645 17.1543 19.3963 17.1638C19.4281 17.1733 19.4707 17.1851 19.4911 17.1902C19.5112 17.1951 19.5515 17.2063 19.5805 17.215C19.6984 17.2502 19.7506 17.2651 19.7856 17.2738C19.8059 17.2788 19.8461 17.2899 19.8751 17.2984C19.9941 17.3336 20.0454 17.3482 20.0803 17.3572C20.1005 17.3623 20.1408 17.3736 20.1698 17.3821C20.2164 17.3959 20.2781 17.4132 20.3802 17.4413C20.3976 17.4461 20.4562 17.4619 20.5105 17.4765C20.5649 17.4913 20.624 17.5078 20.6421 17.5131C20.6601 17.5185 20.6962 17.5286 20.7222 17.5354C20.7483 17.5423 20.7909 17.554 20.817 17.5615C20.8732 17.5779 20.9618 17.6021 21.0274 17.6191C21.0535 17.6259 21.0961 17.6377 21.1221 17.6452C21.1771 17.6611 21.2649 17.6852 21.3326 17.7028C21.3586 17.7098 21.4012 17.7212 21.4273 17.7285C21.5122 17.7523 21.6 17.7763 21.643 17.7872C21.6834 17.7976 21.715 17.8062 21.8534 17.8439C21.8882 17.8534 21.9308 17.865 21.9481 17.8696C21.9655 17.8742 22.0058 17.8852 22.0376 17.8939C22.0695 17.9025 22.1145 17.9145 22.1376 17.9205C22.1607 17.9265 22.208 17.9389 22.2428 17.9483C22.3445 17.9757 22.4187 17.9953 22.4638 18.0066C22.487 18.0125 22.5296 18.0236 22.5585 18.0314C22.5874 18.0392 22.6301 18.0504 22.6532 18.0564C22.7128 18.0717 22.8125 18.0981 22.8742 18.1149C22.9031 18.1228 22.9458 18.1341 22.969 18.14C23.0079 18.1501 23.0355 18.1574 23.1952 18.1998C23.227 18.2082 23.2696 18.2194 23.2899 18.2247C23.3102 18.2299 23.3513 18.2416 23.3813 18.2505C23.4113 18.2596 23.4439 18.2669 23.4536 18.2669C23.4633 18.2669 23.4932 18.2737 23.5199 18.2821C23.5468 18.2904 23.5901 18.3024 23.6161 18.3089C23.6422 18.3153 23.6871 18.3267 23.7161 18.3345C23.745 18.3423 23.7947 18.3556 23.8266 18.3641C23.8584 18.3725 23.9081 18.385 23.9371 18.3919C23.966 18.3986 24.0134 18.4106 24.0423 18.4185C24.0712 18.4265 24.1139 18.4376 24.137 18.4434C24.1602 18.4491 24.2037 18.4612 24.2337 18.4702C24.2637 18.4791 24.2962 18.4865 24.306 18.4865C24.3156 18.4865 24.3456 18.4932 24.3724 18.5016C24.3992 18.51 24.4401 18.5214 24.4632 18.5269C24.7197 18.5888 24.7518 18.6007 24.8069 18.6549C24.8803 18.7271 24.897 18.7887 24.8807 18.9282C24.8739 18.9872 24.8683 19.0756 24.8683 19.1247C24.8683 19.1738 24.8613 19.2702 24.8527 19.3391C24.844 19.4079 24.8369 19.5088 24.8367 19.5635C24.8365 19.6181 24.8321 19.6934 24.8268 19.7308C24.8215 19.7681 24.814 19.8623 24.8101 19.9399C24.8014 20.1164 24.7851 20.1702 24.7216 20.2327C24.6857 20.268 24.6578 20.2843 24.61 20.2981C24.575 20.3081 24.536 20.3163 24.5232 20.3163C24.5105 20.3163 24.4996 20.3222 24.4989 20.3294C24.4944 20.3816 24.5038 20.5101 24.5158 20.562C24.5239 20.5966 24.5325 20.6437 24.535 20.6667C24.5409 20.7213 24.5814 20.9076 24.6155 21.0379C24.6522 21.1775 24.6744 21.255 24.6902 21.2993C24.6973 21.3195 24.7047 21.3418 24.7065 21.3489C24.7091 21.3591 24.7912 21.362 25.0724 21.362C25.2718 21.362 25.4424 21.3592 25.4516 21.3557C25.4667 21.3499 25.4682 21.1803 25.4682 19.5412V17.7331L25.4393 17.7222C25.4234 17.7161 25.3867 17.7064 25.3578 17.7007C25.3288 17.6949 25.2885 17.686 25.2683 17.6811C25.2481 17.6761 25.1959 17.6641 25.1525 17.6544C25.1091 17.6447 25.0522 17.6309 25.0262 17.6237C25.0002 17.6166 24.9576 17.605 24.9315 17.5982C24.8346 17.5727 24.6147 17.5066 24.5632 17.4874C24.5429 17.48 24.4909 17.4614 24.4475 17.4463C24.4041 17.4312 24.3543 17.4125 24.3369 17.405C24.3196 17.3974 24.2557 17.3709 24.1949 17.346C24.0667 17.2936 23.7356 17.1308 23.6396 17.0728C23.6033 17.0509 23.5715 17.033 23.5689 17.033C23.5559 17.033 23.1866 16.7977 23.0274 16.6879C22.7576 16.5022 22.5405 16.3413 21.8281 15.7998C21.235 15.349 21.1239 15.2637 21.01 15.1822C20.9629 15.1484 20.9153 15.1153 20.8327 15.0572C20.708 14.9694 20.2916 14.6908 20.2849 14.6908C20.2826 14.6908 20.2606 14.6771 20.2358 14.6605C20.1459 14.6 20.0272 14.5235 20.0232 14.5235C20.0211 14.5235 19.9939 14.5065 19.9629 14.4857C19.9321 14.4649 19.8972 14.4438 19.8857 14.4387C19.8607 14.4277 19.8345 14.4118 19.789 14.3797C19.7706 14.3668 19.7528 14.3561 19.7494 14.3561C19.7444 14.3561 19.6136 14.2788 19.5541 14.2406C19.5455 14.2351 19.5312 14.2274 19.5226 14.2236C19.5139 14.2197 19.4902 14.2064 19.47 14.1939C19.4497 14.1815 19.4047 14.1556 19.37 14.1365C19.3352 14.1174 19.2927 14.0935 19.2753 14.0832C19.2579 14.0731 19.2129 14.0483 19.1753 14.0283C19.1377 14.0083 19.0666 13.9701 19.0175 13.9435C18.9275 13.8948 18.333 13.6013 18.2545 13.5667C18.2313 13.5566 18.1935 13.5393 18.1703 13.5282C18.1472 13.5173 18.0761 13.4866 18.0125 13.4602C17.9488 13.4338 17.8922 13.408 17.8867 13.4031C17.8813 13.3982 17.8707 13.3942 17.8633 13.3942C17.856 13.3942 17.825 13.3827 17.7944 13.3686C17.7638 13.3544 17.6702 13.3166 17.5863 13.2844C17.5024 13.2522 17.4171 13.2194 17.3969 13.2114C17.3414 13.1895 17.2365 13.1527 17.2127 13.1467C17.2012 13.1439 17.1822 13.1375 17.1707 13.1326C17.1591 13.1277 17.1022 13.1087 17.0444 13.0903C16.9864 13.0721 16.9296 13.0532 16.918 13.0487C16.9065 13.044 16.8686 13.0323 16.8339 13.0225C16.7992 13.0128 16.7518 12.9988 16.7286 12.9915C16.7055 12.9841 16.6653 12.9723 16.6392 12.9653C16.6131 12.9583 16.5705 12.9463 16.5445 12.9388C16.5015 12.9263 16.4223 12.9058 16.3235 12.8816C16.3033 12.8766 16.2511 12.8648 16.2077 12.8553C16.1643 12.8458 16.1122 12.8336 16.092 12.8281C16.0548 12.8179 15.9944 12.8068 15.8725 12.7876C15.8355 12.7818 15.8013 12.7745 15.7964 12.7714C15.7913 12.7683 15.7528 12.7615 15.7107 12.7563C15.6687 12.751 15.5845 12.7394 15.5238 12.7304ZM32.973 37.905C29.3016 38.0873 27.466 39.022 27.466 40.7089C27.466 41.37 27.7175 41.9171 28.2208 42.3503C28.724 42.7835 29.4788 43 30.4854 43C31.7892 43 32.7442 42.6352 33.3504 41.9058C33.5105 42.2591 33.7735 42.5042 34.1396 42.641C34.5055 42.7664 35.0373 42.829 35.7351 42.829H35.9752V40.9825H35.7522C35.5807 40.9825 35.4606 40.9426 35.3919 40.8628C35.3347 40.7831 35.3062 40.6406 35.3062 40.4354V40.0079L35.289 37.7682C35.289 36.8905 34.9745 36.2066 34.3454 35.7165C33.7278 35.2149 32.8128 34.9642 31.6005 34.9642C30.9257 34.9642 30.3366 35.0554 29.8335 35.2378C29.3302 35.4087 28.9585 35.6025 28.7183 35.8191C28.4781 36.0356 28.2837 36.2864 28.135 36.5714C27.9863 36.8449 27.9005 37.0387 27.8777 37.1527C27.8548 37.2553 27.8434 37.3408 27.8434 37.4091H30.0908L30.1423 37.204C30.1766 37.0672 30.3138 36.9304 30.554 36.7936C30.8056 36.6569 31.1487 36.5885 31.5834 36.5885C32.6127 36.5885 33.1274 36.9874 33.1274 37.7853V37.905H32.973ZM30.0565 41.1877C29.8391 41.0623 29.7305 40.8856 29.7305 40.6577C29.7305 40.3841 29.8335 40.1561 30.0393 39.9738C30.2566 39.78 30.5712 39.6375 30.9829 39.5463C31.3946 39.4551 31.7378 39.3924 32.0122 39.3582C32.2981 39.3241 32.6698 39.2899 33.1274 39.2557V39.7002C33.1274 40.2359 32.8929 40.6519 32.424 40.9483C31.9664 41.2447 31.4747 41.3928 30.9486 41.3928H30.88C30.5483 41.3815 30.2738 41.3131 30.0565 41.1877ZM44.3295 40.9825H39.4916L44.0893 36.9133V35.1352H36.9011V36.9817H41.2072L36.678 40.9825V42.829H44.3295V40.9825ZM50.3466 37.905C46.6752 38.0873 44.8396 39.022 44.8396 40.7089C44.8396 41.37 45.0912 41.9171 45.5944 42.3503C46.0976 42.7835 46.8525 43 47.859 43C49.1628 43 50.1178 42.6352 50.724 41.9058C50.8841 42.2591 51.1472 42.5042 51.5132 42.641C51.8791 42.7664 52.4109 42.829 53.1087 42.829H53.3489V40.9825H53.1258C52.9543 40.9825 52.8342 40.9426 52.7656 40.8628C52.7083 40.7831 52.6798 40.6406 52.6798 40.4354V40.0079L52.6626 37.7682C52.6626 36.8905 52.3481 36.2066 51.7191 35.7165C51.1014 35.2149 50.1864 34.9642 48.9741 34.9642C48.2993 34.9642 47.7103 35.0554 47.2071 35.2378C46.7038 35.4087 46.3321 35.6025 46.0919 35.8191C45.8518 36.0356 45.6573 36.2864 45.5086 36.5714C45.3599 36.8449 45.2741 37.0387 45.2513 37.1527C45.2284 37.2553 45.217 37.3408 45.217 37.4091H47.4644L47.5159 37.204C47.5502 37.0672 47.6874 36.9304 47.9276 36.7936C48.1792 36.6569 48.5223 36.5885 48.957 36.5885C49.9863 36.5885 50.501 36.9874 50.501 37.7853V37.905H50.3466ZM47.4301 41.1877C47.2127 41.0623 47.1041 40.8856 47.1041 40.6577C47.1041 40.3841 47.2071 40.1561 47.4129 39.9738C47.6302 39.78 47.9448 39.6375 48.3565 39.5463C48.7682 39.4551 49.1114 39.3924 49.3859 39.3582C49.6718 39.3241 50.0434 39.2899 50.501 39.2557V39.7002C50.501 40.2359 50.2665 40.6519 49.7976 40.9483C49.3401 41.2447 48.8483 41.3928 48.3222 41.3928H48.2536C47.9219 41.3815 47.6474 41.3131 47.4301 41.1877ZM56.3546 36.2123V35.1352H54.2272V42.829H56.4403V39.307C56.4403 38.4749 56.6005 37.8366 56.9207 37.392C57.241 36.9361 57.7442 36.7081 58.4304 36.7081H58.4819C59.5112 36.7195 60.0259 37.4149 60.0259 38.794V42.829H62.239V38.794C62.239 37.563 61.9817 36.6169 61.467 35.9559C60.9523 35.2948 60.066 34.9642 58.8078 34.9642H58.6877C57.6584 34.9756 56.8807 35.3917 56.3546 36.2123ZM67.2377 34.9642C65.9109 34.9642 64.8759 35.3233 64.1325 36.0414C63.3776 36.7708 63.0002 37.7283 63.0002 38.9137C63.0002 40.1789 63.3719 41.1763 64.1153 41.9058C64.8588 42.6352 65.8995 43 67.2377 43C67.9239 43 68.5301 42.8917 69.0562 42.6751C69.5823 42.4472 69.9712 42.2021 70.2228 41.94C70.4744 41.6664 70.6803 41.3529 70.8404 40.9996C71.012 40.6463 71.1092 40.4012 71.1321 40.2644C71.1549 40.1276 71.1721 40.0193 71.1835 39.9396H68.9533L68.8503 40.2644C68.7817 40.4924 68.6044 40.7203 68.3185 40.9483C68.0326 41.1648 67.6723 41.2732 67.2377 41.2732C66.5972 41.2732 66.1054 41.0623 65.7623 40.6406C65.4192 40.2074 65.2476 39.6318 65.2476 38.9137C65.2476 38.207 65.4134 37.6599 65.7451 37.2724C66.0883 36.8849 66.5858 36.6911 67.2377 36.6911C67.5122 36.6911 67.7581 36.731 67.9754 36.8107C68.2042 36.8791 68.37 36.9589 68.4729 37.0501C68.5873 37.1413 68.6845 37.2439 68.7646 37.3579C68.8561 37.4718 68.9076 37.5573 68.919 37.6143C68.9304 37.6599 68.9419 37.6941 68.9533 37.7169H71.2007L71.1492 37.4262C71.1263 37.2439 71.0349 37.0159 70.8747 36.7423C70.7146 36.4688 70.5087 36.201 70.2571 35.9388C70.0055 35.6652 69.6109 35.4372 69.0734 35.2549C68.5473 35.0611 67.9353 34.9642 67.2377 34.9642ZM74.2344 31.8354H72.0213V42.829H74.2344V39.307C74.2344 38.4749 74.3946 37.8366 74.7148 37.392C75.035 36.9361 75.5383 36.7081 76.2245 36.7081H76.276C77.3053 36.7195 77.82 37.4149 77.82 38.794V42.829H80.0331V38.794C80.0331 37.5517 79.7758 36.6056 79.2611 35.9559C78.7464 35.2948 77.8601 34.9642 76.6019 34.9642H76.4647C75.4926 34.9756 74.7491 35.3461 74.2344 36.0755V31.8354ZM83.5548 42.829V35.1352H81.3588V42.829H83.5548ZM81.4961 32.0406C81.2444 32.3027 81.1186 32.6219 81.1186 32.998C81.1186 33.3513 81.2501 33.6591 81.5132 33.9213C81.7762 34.1835 82.085 34.3145 82.4396 34.3145C82.8171 34.3145 83.1373 34.1891 83.4004 33.9384C83.6634 33.6762 83.795 33.3628 83.795 32.998C83.795 32.6219 83.6634 32.3027 83.4004 32.0406C83.1373 31.7784 82.8171 31.6473 82.4396 31.6473C82.0736 31.6473 81.7591 31.7784 81.4961 32.0406ZM85.0223 31.8354V42.829H87.2356V41.0509L88.3165 39.8712L90.581 42.829H93L89.6718 38.3837L92.6569 35.1352H90.0663L87.2356 38.2469V31.8354H85.0223Z" fill="#DEA465"/>
</svg>
